<svg width="178px" height="270px"
 viewBox="0.00 0.00 178.00 269.60" xmlns="http://www.w3.org/2000/svg" xmlns:xlink="http://www.w3.org/1999/xlink">
<g id="graph0" class="graph" transform="scale(1.0 1.0) rotate(0.0) translate(4.0 265.6)">
<title>Tableaux</title>
<polygon fill="white" stroke="transparent" points="-4,4 -4,-265.6 174,-265.6 174,4 -4,4"/>
<!-- 0 -->
<g id="node1" class="node">
<title>0</title>
<ellipse fill="none" stroke="black" cx="107" cy="-219.6" rx="27" ry="18"/>
<text text-anchor="middle" x="107" y="-215.4" font-family="Times,serif" font-size="14.00">x_0</text>
<g id="a_node1_0"><a xlink:href="file:///H:\Universita\Progetto IW\labels\0" xlink:title="x_0">
<polygon fill="none" stroke="black" points="37,-238.6 37,-260.6 79,-260.6 79,-238.6 37,-238.6"/>
<text text-anchor="start" x="39.72" y="-245" font-family="Times,serif" font-size="14.00">L_x_0</text>
</a>
</g>
<polygon fill="none" stroke="black" points="36,-237.6 36,-261.6 80,-261.6 80,-237.6 36,-237.6"/>
</g>
<!-- 1 -->
<g id="node2" class="node">
<title>1</title>
<ellipse fill="none" stroke="black" cx="107" cy="-130.8" rx="27" ry="18"/>
<text text-anchor="middle" x="107" y="-126.6" font-family="Times,serif" font-size="14.00">x_0</text>
<g id="a_node2_1"><a xlink:href="file:///H:\Universita\Progetto IW\labels\1" xlink:title="x_0">
<polygon fill="none" stroke="black" points="37,-149.8 37,-171.8 79,-171.8 79,-149.8 37,-149.8"/>
<text text-anchor="start" x="39.72" y="-156.2" font-family="Times,serif" font-size="14.00">L_x_0</text>
</a>
</g>
<polygon fill="none" stroke="black" points="36,-148.8 36,-172.8 80,-172.8 80,-148.8 36,-148.8"/>
</g>
<!-- 0&#45;&gt;1 -->
<g id="edge1" class="edge">
<title>0&#45;&gt;1</title>
<path fill="none" stroke="black" d="M107,-201.45C107,-189.32 107,-172.82 107,-158.92"/>
<polygon fill="black" stroke="black" points="110.5,-158.91 107,-148.91 103.5,-158.91 110.5,-158.91"/>
<text text-anchor="middle" x="112.25" y="-171" font-family="Times,serif" font-size="14.00">⊔</text>
</g>
<!-- 2 -->
<g id="node3" class="node">
<title>2</title>
<ellipse fill="none" stroke="black" cx="71" cy="-42" rx="27" ry="18"/>
<text text-anchor="middle" x="71" y="-37.8" font-family="Times,serif" font-size="14.00">x_0</text>
<g id="a_node3_2"><a xlink:href="file:///H:\Universita\Progetto IW\labels\2" xlink:title="x_0">
<polygon fill="none" stroke="black" points="1,-61 1,-83 43,-83 43,-61 1,-61"/>
<text text-anchor="start" x="3.72" y="-67.4" font-family="Times,serif" font-size="14.00">L_x_0</text>
</a>
</g>
<polygon fill="none" stroke="black" points="0,-60 0,-84 44,-84 44,-60 0,-60"/>
</g>
<!-- 1&#45;&gt;2 -->
<g id="edge3" class="edge">
<title>1&#45;&gt;2</title>
<path fill="none" stroke="black" d="M100.06,-113.06C94.88,-100.58 87.71,-83.28 81.78,-69"/>
<polygon fill="black" stroke="black" points="84.98,-67.58 77.92,-59.68 78.52,-70.26 84.98,-67.58"/>
<text text-anchor="middle" x="98.25" y="-82.2" font-family="Times,serif" font-size="14.00">⊔</text>
</g>
<!-- 3 -->
<g id="node4" class="node">
<title>3</title>
<ellipse fill="none" stroke="black" cx="143" cy="-42" rx="27" ry="18"/>
<text text-anchor="middle" x="143" y="-37.8" font-family="Times,serif" font-size="14.00">x_0</text>
<g id="a_node4_3"><a xlink:href="file:///H:\Universita\Progetto IW\labels\3" xlink:title="x_0">
<polygon fill="none" stroke="black" points="73,-1 73,-23 115,-23 115,-1 73,-1"/>
<text text-anchor="start" x="75.72" y="-7.4" font-family="Times,serif" font-size="14.00">L_x_0</text>
</a>
</g>
<polygon fill="none" stroke="black" points="72,0 72,-24 116,-24 116,0 72,0"/>
</g>
<!-- 1&#45;&gt;3 -->
<g id="edge2" class="edge">
<title>1&#45;&gt;3</title>
<path fill="none" stroke="black" d="M113.94,-113.06C119.12,-100.58 126.29,-83.28 132.22,-69"/>
<polygon fill="black" stroke="black" points="135.48,-70.26 136.08,-59.68 129.02,-67.58 135.48,-70.26"/>
<text text-anchor="middle" x="133.25" y="-82.2" font-family="Times,serif" font-size="14.00">⊔</text>
</g>
</g>
</svg>
