<svg width="500px" height="760px"
 viewBox="0.00 0.00 153.76 233.80" xmlns="http://www.w3.org/2000/svg" xmlns:xlink="http://www.w3.org/1999/xlink">
<g id="graph0" class="graph" transform="scale(1.0 1.0) rotate(0.0) translate(4.0 229.8)">
<title>Tableau</title>
<polygon fill="white" stroke="transparent" points="-4,4 -4,-229.8 149.76,-229.8 149.76,4 -4,4"/>
<!-- 0 -->
<g id="node1" class="node">
<title>0</title>
<ellipse fill="none" stroke="black" cx="61" cy="-179.8" rx="27" ry="18"/>
<text text-anchor="start" x="54" y="-176.6" font-family="Times,serif" font-size="14.00">x</text>
<text text-anchor="start" x="61" y="-176.6" font-family="Times,serif" baseline-shift="sub" font-size="14.00">0</text>
<g id="a_node1_0"><a xlink:href="file:///H:\Università\Progetto IW\labels\1_52" xlink:title="x&lt;sub&gt;0&lt;/sub&gt;">
<polygon fill="none" stroke="black" points="1,-198.8 1,-224.8 33,-224.8 33,-198.8 1,-198.8"/>
<text text-anchor="start" x="5.72" y="-208.2" font-family="Times,serif" font-size="14.00">L</text>
<text text-anchor="start" x="14.28" y="-208.2" font-family="Times,serif" baseline-shift="sub" font-size="14.00">x</text>
<text text-anchor="start" x="21.28" y="-208.2" font-family="Times,serif" baseline-shift="sub" font-size="14.00">0</text>
</a>
</g>
<polygon fill="none" stroke="black" points="0,-197.8 0,-225.8 34,-225.8 34,-197.8 0,-197.8"/>
</g>
<!-- 1 -->
<g id="node2" class="node">
<title>1</title>
<ellipse fill="none" stroke="black" cx="61" cy="-91" rx="27" ry="18"/>
<text text-anchor="start" x="54" y="-87.8" font-family="Times,serif" font-size="14.00">x</text>
<text text-anchor="start" x="61" y="-87.8" font-family="Times,serif" baseline-shift="sub" font-size="14.00">1</text>
<g id="a_node2_1"><a xlink:href="file:///H:\Università\Progetto IW\labels\2_36" xlink:title="x&lt;sub&gt;1&lt;/sub&gt;">
<polygon fill="none" stroke="black" points="1,-110 1,-136 33,-136 33,-110 1,-110"/>
<text text-anchor="start" x="5.72" y="-119.4" font-family="Times,serif" font-size="14.00">L</text>
<text text-anchor="start" x="14.28" y="-119.4" font-family="Times,serif" baseline-shift="sub" font-size="14.00">x</text>
<text text-anchor="start" x="21.28" y="-119.4" font-family="Times,serif" baseline-shift="sub" font-size="14.00">1</text>
</a>
</g>
<polygon fill="none" stroke="black" points="0,-109 0,-137 34,-137 34,-109 0,-109"/>
</g>
<!-- 0&#45;&gt;1 -->
<g id="edge1" class="edge">
<title>0&#45;&gt;1</title>
<path fill="none" stroke="black" d="M61,-161.65C61,-149.52 61,-133.02 61,-119.12"/>
<polygon fill="black" stroke="black" points="64.5,-119.11 61,-109.11 57.5,-119.11 64.5,-119.11"/>
<text text-anchor="middle" x="103.38" y="-131.2" font-family="Times,serif" font-size="14.00">haComponente</text>
</g>
<!-- 2 -->
<g id="node3" class="node">
<title>2</title>
<text text-anchor="middle" x="61" y="-13.8" font-family="Times,serif" font-size="14.00" fill="#cc3300">✖</text>
</g>
<!-- 1&#45;&gt;2 -->
<g id="edge2" class="edge">
<title>1&#45;&gt;2</title>
<path fill="none" stroke="black" d="M61,-72.81C61,-64.79 61,-55.05 61,-46.07"/>
<polygon fill="black" stroke="black" points="64.5,-46.03 61,-36.03 57.5,-46.03 64.5,-46.03"/>
</g>
</g>
</svg>
