<svg width="500px" height="639px"
 viewBox="0.00 0.00 600.00 766.60" xmlns="http://www.w3.org/2000/svg" xmlns:xlink="http://www.w3.org/1999/xlink">
<g id="graph0" class="graph" transform="scale(1.0 1.0) rotate(0.0) translate(4.0 762.6)">
<title>Tableau</title>
<polygon fill="white" stroke="transparent" points="-4,4 -4,-762.6 596,-762.6 596,4 -4,4"/>
<!-- 0 -->
<g id="node1" class="node">
<title>0</title>
<ellipse fill="none" stroke="black" cx="385" cy="-712.6" rx="27" ry="18"/>
<text text-anchor="start" x="378" y="-709.4" font-family="Times,serif" font-size="14.00">x</text>
<text text-anchor="start" x="385" y="-709.4" font-family="Times,serif" baseline-shift="sub" font-size="14.00">0</text>
<g id="a_node1_0"><a xlink:href="file:///H:\Università\Progetto IW\labels\1_1" xlink:title="x&lt;sub&gt;0&lt;/sub&gt;">
<polygon fill="none" stroke="black" points="325,-731.6 325,-757.6 357,-757.6 357,-731.6 325,-731.6"/>
<text text-anchor="start" x="329.72" y="-741" font-family="Times,serif" font-size="14.00">L</text>
<text text-anchor="start" x="338.28" y="-741" font-family="Times,serif" baseline-shift="sub" font-size="14.00">x</text>
<text text-anchor="start" x="345.28" y="-741" font-family="Times,serif" baseline-shift="sub" font-size="14.00">0</text>
</a>
</g>
<polygon fill="none" stroke="black" points="324,-730.6 324,-758.6 358,-758.6 358,-730.6 324,-730.6"/>
</g>
<!-- 1 -->
<g id="node2" class="node">
<title>1</title>
<ellipse fill="none" stroke="black" cx="349" cy="-623.8" rx="27" ry="18"/>
<text text-anchor="start" x="342" y="-620.6" font-family="Times,serif" font-size="14.00">x</text>
<text text-anchor="start" x="349" y="-620.6" font-family="Times,serif" baseline-shift="sub" font-size="14.00">0</text>
<g id="a_node2_1"><a xlink:href="file:///H:\Università\Progetto IW\labels\2_1" xlink:title="x&lt;sub&gt;0&lt;/sub&gt;">
<polygon fill="none" stroke="black" points="289,-642.8 289,-668.8 321,-668.8 321,-642.8 289,-642.8"/>
<text text-anchor="start" x="293.72" y="-652.2" font-family="Times,serif" font-size="14.00">L</text>
<text text-anchor="start" x="302.28" y="-652.2" font-family="Times,serif" baseline-shift="sub" font-size="14.00">x</text>
<text text-anchor="start" x="309.28" y="-652.2" font-family="Times,serif" baseline-shift="sub" font-size="14.00">0</text>
</a>
</g>
<polygon fill="none" stroke="black" points="288,-641.8 288,-669.8 322,-669.8 322,-641.8 288,-641.8"/>
</g>
<!-- 0&#45;&gt;1 -->
<g id="edge2" class="edge">
<title>0&#45;&gt;1</title>
<path fill="none" stroke="black" d="M378.06,-694.86C372.88,-682.38 365.71,-665.08 359.78,-650.8"/>
<polygon fill="black" stroke="black" points="362.98,-649.38 355.92,-641.48 356.52,-652.06 362.98,-649.38"/>
<text text-anchor="middle" x="376.25" y="-664" font-family="Times,serif" font-size="14.00">⊔</text>
</g>
<!-- 18 -->
<g id="node19" class="node">
<title>18</title>
<ellipse fill="none" stroke="black" cx="421" cy="-623.8" rx="27" ry="18"/>
<text text-anchor="start" x="414" y="-620.6" font-family="Times,serif" font-size="14.00">x</text>
<text text-anchor="start" x="421" y="-620.6" font-family="Times,serif" baseline-shift="sub" font-size="14.00">0</text>
<g id="a_node19_2"><a xlink:href="file:///H:\Università\Progetto IW\labels\19_1" xlink:title="x&lt;sub&gt;0&lt;/sub&gt;">
<polygon fill="none" stroke="black" points="361,-578.8 361,-604.8 393,-604.8 393,-578.8 361,-578.8"/>
<text text-anchor="start" x="365.72" y="-588.2" font-family="Times,serif" font-size="14.00">L</text>
<text text-anchor="start" x="374.28" y="-588.2" font-family="Times,serif" baseline-shift="sub" font-size="14.00">x</text>
<text text-anchor="start" x="381.28" y="-588.2" font-family="Times,serif" baseline-shift="sub" font-size="14.00">0</text>
</a>
</g>
<polygon fill="none" stroke="black" points="360,-577.8 360,-605.8 394,-605.8 394,-577.8 360,-577.8"/>
</g>
<!-- 0&#45;&gt;18 -->
<g id="edge1" class="edge">
<title>0&#45;&gt;18</title>
<path fill="none" stroke="black" d="M391.94,-694.86C397.12,-682.38 404.29,-665.08 410.22,-650.8"/>
<polygon fill="black" stroke="black" points="413.48,-652.06 414.08,-641.48 407.02,-649.38 413.48,-652.06"/>
<text text-anchor="middle" x="412.25" y="-664" font-family="Times,serif" font-size="14.00">⊔</text>
</g>
<!-- 2 -->
<g id="node3" class="node">
<title>2</title>
<ellipse fill="none" stroke="black" cx="277" cy="-535" rx="27" ry="18"/>
<text text-anchor="start" x="270" y="-531.8" font-family="Times,serif" font-size="14.00">x</text>
<text text-anchor="start" x="277" y="-531.8" font-family="Times,serif" baseline-shift="sub" font-size="14.00">0</text>
<g id="a_node3_3"><a xlink:href="file:///H:\Università\Progetto IW\labels\3_1" xlink:title="x&lt;sub&gt;0&lt;/sub&gt;">
<polygon fill="none" stroke="black" points="217,-554 217,-580 249,-580 249,-554 217,-554"/>
<text text-anchor="start" x="221.72" y="-563.4" font-family="Times,serif" font-size="14.00">L</text>
<text text-anchor="start" x="230.28" y="-563.4" font-family="Times,serif" baseline-shift="sub" font-size="14.00">x</text>
<text text-anchor="start" x="237.28" y="-563.4" font-family="Times,serif" baseline-shift="sub" font-size="14.00">0</text>
</a>
</g>
<polygon fill="none" stroke="black" points="216,-553 216,-581 250,-581 250,-553 216,-553"/>
</g>
<!-- 1&#45;&gt;2 -->
<g id="edge4" class="edge">
<title>1&#45;&gt;2</title>
<path fill="none" stroke="black" d="M336.46,-607.68C325.38,-594.32 309.04,-574.63 296.29,-559.26"/>
<polygon fill="black" stroke="black" points="298.72,-556.7 289.64,-551.24 293.33,-561.17 298.72,-556.7"/>
<text text-anchor="middle" x="325.25" y="-575.2" font-family="Times,serif" font-size="14.00">⊔</text>
</g>
<!-- 16 -->
<g id="node17" class="node">
<title>16</title>
<ellipse fill="none" stroke="black" cx="349" cy="-535" rx="27" ry="18"/>
<text text-anchor="start" x="342" y="-531.8" font-family="Times,serif" font-size="14.00">x</text>
<text text-anchor="start" x="349" y="-531.8" font-family="Times,serif" baseline-shift="sub" font-size="14.00">0</text>
<g id="a_node17_4"><a xlink:href="file:///H:\Università\Progetto IW\labels\17_1" xlink:title="x&lt;sub&gt;0&lt;/sub&gt;">
<polygon fill="none" stroke="black" points="289,-490 289,-516 321,-516 321,-490 289,-490"/>
<text text-anchor="start" x="293.72" y="-499.4" font-family="Times,serif" font-size="14.00">L</text>
<text text-anchor="start" x="302.28" y="-499.4" font-family="Times,serif" baseline-shift="sub" font-size="14.00">x</text>
<text text-anchor="start" x="309.28" y="-499.4" font-family="Times,serif" baseline-shift="sub" font-size="14.00">0</text>
</a>
</g>
<polygon fill="none" stroke="black" points="288,-489 288,-517 322,-517 322,-489 288,-489"/>
</g>
<!-- 1&#45;&gt;16 -->
<g id="edge3" class="edge">
<title>1&#45;&gt;16</title>
<path fill="none" stroke="black" d="M349,-605.65C349,-593.52 349,-577.02 349,-563.12"/>
<polygon fill="black" stroke="black" points="352.5,-563.11 349,-553.11 345.5,-563.11 352.5,-563.11"/>
<text text-anchor="middle" x="354.25" y="-575.2" font-family="Times,serif" font-size="14.00">⊔</text>
</g>
<!-- 3 -->
<g id="node4" class="node">
<title>3</title>
<ellipse fill="none" stroke="black" cx="205" cy="-446.2" rx="27" ry="18"/>
<text text-anchor="start" x="198" y="-443" font-family="Times,serif" font-size="14.00">x</text>
<text text-anchor="start" x="205" y="-443" font-family="Times,serif" baseline-shift="sub" font-size="14.00">0</text>
<g id="a_node4_5"><a xlink:href="file:///H:\Università\Progetto IW\labels\4_1" xlink:title="x&lt;sub&gt;0&lt;/sub&gt;">
<polygon fill="none" stroke="black" points="145,-465.2 145,-491.2 177,-491.2 177,-465.2 145,-465.2"/>
<text text-anchor="start" x="149.72" y="-474.6" font-family="Times,serif" font-size="14.00">L</text>
<text text-anchor="start" x="158.28" y="-474.6" font-family="Times,serif" baseline-shift="sub" font-size="14.00">x</text>
<text text-anchor="start" x="165.28" y="-474.6" font-family="Times,serif" baseline-shift="sub" font-size="14.00">0</text>
</a>
</g>
<polygon fill="none" stroke="black" points="144,-464.2 144,-492.2 178,-492.2 178,-464.2 144,-464.2"/>
</g>
<!-- 2&#45;&gt;3 -->
<g id="edge6" class="edge">
<title>2&#45;&gt;3</title>
<path fill="none" stroke="black" d="M264.46,-518.88C253.38,-505.52 237.04,-485.83 224.29,-470.46"/>
<polygon fill="black" stroke="black" points="226.72,-467.9 217.64,-462.44 221.33,-472.37 226.72,-467.9"/>
<text text-anchor="middle" x="253.25" y="-486.4" font-family="Times,serif" font-size="14.00">⊔</text>
</g>
<!-- 14 -->
<g id="node15" class="node">
<title>14</title>
<ellipse fill="none" stroke="black" cx="277" cy="-446.2" rx="27" ry="18"/>
<text text-anchor="start" x="270" y="-443" font-family="Times,serif" font-size="14.00">x</text>
<text text-anchor="start" x="277" y="-443" font-family="Times,serif" baseline-shift="sub" font-size="14.00">0</text>
<g id="a_node15_6"><a xlink:href="file:///H:\Università\Progetto IW\labels\15_1" xlink:title="x&lt;sub&gt;0&lt;/sub&gt;">
<polygon fill="none" stroke="black" points="217,-401.2 217,-427.2 249,-427.2 249,-401.2 217,-401.2"/>
<text text-anchor="start" x="221.72" y="-410.6" font-family="Times,serif" font-size="14.00">L</text>
<text text-anchor="start" x="230.28" y="-410.6" font-family="Times,serif" baseline-shift="sub" font-size="14.00">x</text>
<text text-anchor="start" x="237.28" y="-410.6" font-family="Times,serif" baseline-shift="sub" font-size="14.00">0</text>
</a>
</g>
<polygon fill="none" stroke="black" points="216,-400.2 216,-428.2 250,-428.2 250,-400.2 216,-400.2"/>
</g>
<!-- 2&#45;&gt;14 -->
<g id="edge5" class="edge">
<title>2&#45;&gt;14</title>
<path fill="none" stroke="black" d="M277,-516.85C277,-504.72 277,-488.22 277,-474.32"/>
<polygon fill="black" stroke="black" points="280.5,-474.31 277,-464.31 273.5,-474.31 280.5,-474.31"/>
<text text-anchor="middle" x="282.25" y="-486.4" font-family="Times,serif" font-size="14.00">⊔</text>
</g>
<!-- 4 -->
<g id="node5" class="node">
<title>4</title>
<ellipse fill="none" stroke="black" cx="133" cy="-357.4" rx="27" ry="18"/>
<text text-anchor="start" x="126" y="-354.2" font-family="Times,serif" font-size="14.00">x</text>
<text text-anchor="start" x="133" y="-354.2" font-family="Times,serif" baseline-shift="sub" font-size="14.00">0</text>
<g id="a_node5_7"><a xlink:href="file:///H:\Università\Progetto IW\labels\5_1" xlink:title="x&lt;sub&gt;0&lt;/sub&gt;">
<polygon fill="none" stroke="black" points="73,-376.4 73,-402.4 105,-402.4 105,-376.4 73,-376.4"/>
<text text-anchor="start" x="77.72" y="-385.8" font-family="Times,serif" font-size="14.00">L</text>
<text text-anchor="start" x="86.28" y="-385.8" font-family="Times,serif" baseline-shift="sub" font-size="14.00">x</text>
<text text-anchor="start" x="93.28" y="-385.8" font-family="Times,serif" baseline-shift="sub" font-size="14.00">0</text>
</a>
</g>
<polygon fill="none" stroke="black" points="72,-375.4 72,-403.4 106,-403.4 106,-375.4 72,-375.4"/>
</g>
<!-- 3&#45;&gt;4 -->
<g id="edge8" class="edge">
<title>3&#45;&gt;4</title>
<path fill="none" stroke="black" d="M192.46,-430.08C181.38,-416.72 165.04,-397.03 152.29,-381.66"/>
<polygon fill="black" stroke="black" points="154.72,-379.1 145.64,-373.64 149.33,-383.57 154.72,-379.1"/>
<text text-anchor="middle" x="181.25" y="-397.6" font-family="Times,serif" font-size="14.00">⊔</text>
</g>
<!-- 12 -->
<g id="node13" class="node">
<title>12</title>
<ellipse fill="none" stroke="black" cx="205" cy="-357.4" rx="27" ry="18"/>
<text text-anchor="start" x="198" y="-354.2" font-family="Times,serif" font-size="14.00">x</text>
<text text-anchor="start" x="205" y="-354.2" font-family="Times,serif" baseline-shift="sub" font-size="14.00">0</text>
<g id="a_node13_8"><a xlink:href="file:///H:\Università\Progetto IW\labels\13_1" xlink:title="x&lt;sub&gt;0&lt;/sub&gt;">
<polygon fill="none" stroke="black" points="145,-312.4 145,-338.4 177,-338.4 177,-312.4 145,-312.4"/>
<text text-anchor="start" x="149.72" y="-321.8" font-family="Times,serif" font-size="14.00">L</text>
<text text-anchor="start" x="158.28" y="-321.8" font-family="Times,serif" baseline-shift="sub" font-size="14.00">x</text>
<text text-anchor="start" x="165.28" y="-321.8" font-family="Times,serif" baseline-shift="sub" font-size="14.00">0</text>
</a>
</g>
<polygon fill="none" stroke="black" points="144,-311.4 144,-339.4 178,-339.4 178,-311.4 144,-311.4"/>
</g>
<!-- 3&#45;&gt;12 -->
<g id="edge7" class="edge">
<title>3&#45;&gt;12</title>
<path fill="none" stroke="black" d="M205,-428.05C205,-415.92 205,-399.42 205,-385.52"/>
<polygon fill="black" stroke="black" points="208.5,-385.51 205,-375.51 201.5,-385.51 208.5,-385.51"/>
<text text-anchor="middle" x="210.25" y="-397.6" font-family="Times,serif" font-size="14.00">⊔</text>
</g>
<!-- 5 -->
<g id="node6" class="node">
<title>5</title>
<ellipse fill="none" stroke="black" cx="61" cy="-268.6" rx="27" ry="18"/>
<text text-anchor="start" x="54" y="-265.4" font-family="Times,serif" font-size="14.00">x</text>
<text text-anchor="start" x="61" y="-265.4" font-family="Times,serif" baseline-shift="sub" font-size="14.00">0</text>
<g id="a_node6_9"><a xlink:href="file:///H:\Università\Progetto IW\labels\6_1" xlink:title="x&lt;sub&gt;0&lt;/sub&gt;">
<polygon fill="none" stroke="black" points="1,-287.6 1,-313.6 33,-313.6 33,-287.6 1,-287.6"/>
<text text-anchor="start" x="5.72" y="-297" font-family="Times,serif" font-size="14.00">L</text>
<text text-anchor="start" x="14.28" y="-297" font-family="Times,serif" baseline-shift="sub" font-size="14.00">x</text>
<text text-anchor="start" x="21.28" y="-297" font-family="Times,serif" baseline-shift="sub" font-size="14.00">0</text>
</a>
</g>
<polygon fill="none" stroke="black" points="0,-286.6 0,-314.6 34,-314.6 34,-286.6 0,-286.6"/>
</g>
<!-- 4&#45;&gt;5 -->
<g id="edge10" class="edge">
<title>4&#45;&gt;5</title>
<path fill="none" stroke="black" d="M120.46,-341.28C109.38,-327.92 93.04,-308.23 80.29,-292.86"/>
<polygon fill="black" stroke="black" points="82.72,-290.3 73.64,-284.84 77.33,-294.77 82.72,-290.3"/>
<text text-anchor="middle" x="109.25" y="-308.8" font-family="Times,serif" font-size="14.00">⊔</text>
</g>
<!-- 7 -->
<g id="node8" class="node">
<title>7</title>
<ellipse fill="none" stroke="black" cx="133" cy="-268.6" rx="27" ry="18"/>
<text text-anchor="start" x="126" y="-265.4" font-family="Times,serif" font-size="14.00">x</text>
<text text-anchor="start" x="133" y="-265.4" font-family="Times,serif" baseline-shift="sub" font-size="14.00">0</text>
<g id="a_node8_10"><a xlink:href="file:///H:\Università\Progetto IW\labels\8_1" xlink:title="x&lt;sub&gt;0&lt;/sub&gt;">
<polygon fill="none" stroke="black" points="73,-223.6 73,-249.6 105,-249.6 105,-223.6 73,-223.6"/>
<text text-anchor="start" x="77.72" y="-233" font-family="Times,serif" font-size="14.00">L</text>
<text text-anchor="start" x="86.28" y="-233" font-family="Times,serif" baseline-shift="sub" font-size="14.00">x</text>
<text text-anchor="start" x="93.28" y="-233" font-family="Times,serif" baseline-shift="sub" font-size="14.00">0</text>
</a>
</g>
<polygon fill="none" stroke="black" points="72,-222.6 72,-250.6 106,-250.6 106,-222.6 72,-222.6"/>
</g>
<!-- 4&#45;&gt;7 -->
<g id="edge9" class="edge">
<title>4&#45;&gt;7</title>
<path fill="none" stroke="black" d="M133,-339.25C133,-327.12 133,-310.62 133,-296.72"/>
<polygon fill="black" stroke="black" points="136.5,-296.71 133,-286.71 129.5,-296.71 136.5,-296.71"/>
<text text-anchor="middle" x="138.25" y="-308.8" font-family="Times,serif" font-size="14.00">⊔</text>
</g>
<!-- 6 -->
<g id="node7" class="node">
<title>6</title>
<text text-anchor="middle" x="61" y="-175.6" font-family="Times,serif" font-size="14.00" fill="#cc3300">✖</text>
</g>
<!-- 5&#45;&gt;6 -->
<g id="edge11" class="edge">
<title>5&#45;&gt;6</title>
<path fill="none" stroke="black" d="M61,-250.45C61,-238.32 61,-221.82 61,-207.92"/>
<polygon fill="black" stroke="black" points="64.5,-207.91 61,-197.91 57.5,-207.91 64.5,-207.91"/>
</g>
<!-- 8 -->
<g id="node9" class="node">
<title>8</title>
<ellipse fill="none" stroke="black" cx="133" cy="-179.8" rx="27" ry="18"/>
<text text-anchor="start" x="126" y="-176.6" font-family="Times,serif" font-size="14.00">x</text>
<text text-anchor="start" x="133" y="-176.6" font-family="Times,serif" baseline-shift="sub" font-size="14.00">0</text>
<g id="a_node9_11"><a xlink:href="file:///H:\Università\Progetto IW\labels\9_1" xlink:title="x&lt;sub&gt;0&lt;/sub&gt;">
<polygon fill="none" stroke="black" points="73,-134.8 73,-160.8 105,-160.8 105,-134.8 73,-134.8"/>
<text text-anchor="start" x="77.72" y="-144.2" font-family="Times,serif" font-size="14.00">L</text>
<text text-anchor="start" x="86.28" y="-144.2" font-family="Times,serif" baseline-shift="sub" font-size="14.00">x</text>
<text text-anchor="start" x="93.28" y="-144.2" font-family="Times,serif" baseline-shift="sub" font-size="14.00">0</text>
</a>
</g>
<polygon fill="none" stroke="black" points="72,-133.8 72,-161.8 106,-161.8 106,-133.8 72,-133.8"/>
</g>
<!-- 7&#45;&gt;8 -->
<g id="edge13" class="edge">
<title>7&#45;&gt;8</title>
<path fill="none" stroke="black" d="M133,-250.45C133,-238.32 133,-221.82 133,-207.92"/>
<polygon fill="black" stroke="black" points="136.5,-207.91 133,-197.91 129.5,-207.91 136.5,-207.91"/>
<text text-anchor="middle" x="138.25" y="-220" font-family="Times,serif" font-size="14.00">⊔</text>
</g>
<!-- 10 -->
<g id="node11" class="node">
<title>10</title>
<ellipse fill="none" stroke="black" cx="205" cy="-179.8" rx="27" ry="18"/>
<text text-anchor="start" x="198" y="-176.6" font-family="Times,serif" font-size="14.00">x</text>
<text text-anchor="start" x="205" y="-176.6" font-family="Times,serif" baseline-shift="sub" font-size="14.00">0</text>
<g id="a_node11_12"><a xlink:href="file:///H:\Università\Progetto IW\labels\11_1" xlink:title="x&lt;sub&gt;0&lt;/sub&gt;">
<polygon fill="none" stroke="black" points="145,-134.8 145,-160.8 177,-160.8 177,-134.8 145,-134.8"/>
<text text-anchor="start" x="149.72" y="-144.2" font-family="Times,serif" font-size="14.00">L</text>
<text text-anchor="start" x="158.28" y="-144.2" font-family="Times,serif" baseline-shift="sub" font-size="14.00">x</text>
<text text-anchor="start" x="165.28" y="-144.2" font-family="Times,serif" baseline-shift="sub" font-size="14.00">0</text>
</a>
</g>
<polygon fill="none" stroke="black" points="144,-133.8 144,-161.8 178,-161.8 178,-133.8 144,-133.8"/>
</g>
<!-- 7&#45;&gt;10 -->
<g id="edge12" class="edge">
<title>7&#45;&gt;10</title>
<path fill="none" stroke="black" d="M145.54,-252.48C156.62,-239.12 172.96,-219.43 185.71,-204.06"/>
<polygon fill="black" stroke="black" points="188.67,-205.97 192.36,-196.04 183.28,-201.5 188.67,-205.97"/>
<text text-anchor="middle" x="181.25" y="-220" font-family="Times,serif" font-size="14.00">⊔</text>
</g>
<!-- 9 -->
<g id="node10" class="node">
<title>9</title>
<text text-anchor="middle" x="133" y="-86.8" font-family="Times,serif" font-size="14.00" fill="#cc3300">✖</text>
</g>
<!-- 8&#45;&gt;9 -->
<g id="edge14" class="edge">
<title>8&#45;&gt;9</title>
<path fill="none" stroke="black" d="M133,-161.65C133,-149.52 133,-133.02 133,-119.12"/>
<polygon fill="black" stroke="black" points="136.5,-119.11 133,-109.11 129.5,-119.11 136.5,-119.11"/>
</g>
<!-- 11 -->
<g id="node12" class="node">
<title>11</title>
<text text-anchor="middle" x="205" y="-86.8" font-family="Times,serif" font-size="14.00" fill="#cc3300">✖</text>
</g>
<!-- 10&#45;&gt;11 -->
<g id="edge15" class="edge">
<title>10&#45;&gt;11</title>
<path fill="none" stroke="black" d="M205,-161.65C205,-149.52 205,-133.02 205,-119.12"/>
<polygon fill="black" stroke="black" points="208.5,-119.11 205,-109.11 201.5,-119.11 208.5,-119.11"/>
</g>
<!-- 13 -->
<g id="node14" class="node">
<title>13</title>
<text text-anchor="middle" x="205" y="-264.4" font-family="Times,serif" font-size="14.00" fill="#cc3300">✖</text>
</g>
<!-- 12&#45;&gt;13 -->
<g id="edge16" class="edge">
<title>12&#45;&gt;13</title>
<path fill="none" stroke="black" d="M205,-339.25C205,-327.12 205,-310.62 205,-296.72"/>
<polygon fill="black" stroke="black" points="208.5,-296.71 205,-286.71 201.5,-296.71 208.5,-296.71"/>
</g>
<!-- 15 -->
<g id="node16" class="node">
<title>15</title>
<text text-anchor="middle" x="277" y="-353.2" font-family="Times,serif" font-size="14.00" fill="#cc3300">✖</text>
</g>
<!-- 14&#45;&gt;15 -->
<g id="edge17" class="edge">
<title>14&#45;&gt;15</title>
<path fill="none" stroke="black" d="M277,-428.05C277,-415.92 277,-399.42 277,-385.52"/>
<polygon fill="black" stroke="black" points="280.5,-385.51 277,-375.51 273.5,-385.51 280.5,-385.51"/>
</g>
<!-- 17 -->
<g id="node18" class="node">
<title>17</title>
<text text-anchor="middle" x="349" y="-442" font-family="Times,serif" font-size="14.00" fill="#cc3300">✖</text>
</g>
<!-- 16&#45;&gt;17 -->
<g id="edge18" class="edge">
<title>16&#45;&gt;17</title>
<path fill="none" stroke="black" d="M349,-516.85C349,-504.72 349,-488.22 349,-474.32"/>
<polygon fill="black" stroke="black" points="352.5,-474.31 349,-464.31 345.5,-474.31 352.5,-474.31"/>
</g>
<!-- 19 -->
<g id="node20" class="node">
<title>19</title>
<ellipse fill="none" stroke="black" cx="421" cy="-535" rx="27" ry="18"/>
<text text-anchor="start" x="414" y="-531.8" font-family="Times,serif" font-size="14.00">x</text>
<text text-anchor="start" x="421" y="-531.8" font-family="Times,serif" baseline-shift="sub" font-size="14.00">0</text>
<g id="a_node20_13"><a xlink:href="file:///H:\Università\Progetto IW\labels\20_1" xlink:title="x&lt;sub&gt;0&lt;/sub&gt;">
<polygon fill="none" stroke="black" points="361,-490 361,-516 393,-516 393,-490 361,-490"/>
<text text-anchor="start" x="365.72" y="-499.4" font-family="Times,serif" font-size="14.00">L</text>
<text text-anchor="start" x="374.28" y="-499.4" font-family="Times,serif" baseline-shift="sub" font-size="14.00">x</text>
<text text-anchor="start" x="381.28" y="-499.4" font-family="Times,serif" baseline-shift="sub" font-size="14.00">0</text>
</a>
</g>
<polygon fill="none" stroke="black" points="360,-489 360,-517 394,-517 394,-489 360,-489"/>
</g>
<!-- 18&#45;&gt;19 -->
<g id="edge19" class="edge">
<title>18&#45;&gt;19</title>
<path fill="none" stroke="black" d="M421,-605.65C421,-593.52 421,-577.02 421,-563.12"/>
<polygon fill="black" stroke="black" points="424.5,-563.11 421,-553.11 417.5,-563.11 424.5,-563.11"/>
<text text-anchor="middle" x="426.25" y="-575.2" font-family="Times,serif" font-size="14.00">⊔</text>
</g>
<!-- 20 -->
<g id="node21" class="node">
<title>20</title>
<ellipse fill="none" stroke="black" cx="421" cy="-446.2" rx="27" ry="18"/>
<text text-anchor="start" x="414" y="-443" font-family="Times,serif" font-size="14.00">x</text>
<text text-anchor="start" x="421" y="-443" font-family="Times,serif" baseline-shift="sub" font-size="14.00">0</text>
<g id="a_node21_14"><a xlink:href="file:///H:\Università\Progetto IW\labels\21_1" xlink:title="x&lt;sub&gt;0&lt;/sub&gt;">
<polygon fill="none" stroke="black" points="361,-401.2 361,-427.2 393,-427.2 393,-401.2 361,-401.2"/>
<text text-anchor="start" x="365.72" y="-410.6" font-family="Times,serif" font-size="14.00">L</text>
<text text-anchor="start" x="374.28" y="-410.6" font-family="Times,serif" baseline-shift="sub" font-size="14.00">x</text>
<text text-anchor="start" x="381.28" y="-410.6" font-family="Times,serif" baseline-shift="sub" font-size="14.00">0</text>
</a>
</g>
<polygon fill="none" stroke="black" points="360,-400.2 360,-428.2 394,-428.2 394,-400.2 360,-400.2"/>
</g>
<!-- 19&#45;&gt;20 -->
<g id="edge20" class="edge">
<title>19&#45;&gt;20</title>
<path fill="none" stroke="black" d="M421,-516.85C421,-504.72 421,-488.22 421,-474.32"/>
<polygon fill="black" stroke="black" points="424.5,-474.31 421,-464.31 417.5,-474.31 424.5,-474.31"/>
<text text-anchor="middle" x="426.25" y="-486.4" font-family="Times,serif" font-size="14.00">⊔</text>
</g>
<!-- 21 -->
<g id="node22" class="node">
<title>21</title>
<ellipse fill="none" stroke="black" cx="421" cy="-357.4" rx="27" ry="18"/>
<text text-anchor="start" x="414" y="-354.2" font-family="Times,serif" font-size="14.00">x</text>
<text text-anchor="start" x="421" y="-354.2" font-family="Times,serif" baseline-shift="sub" font-size="14.00">0</text>
<g id="a_node22_15"><a xlink:href="file:///H:\Università\Progetto IW\labels\22_1" xlink:title="x&lt;sub&gt;0&lt;/sub&gt;">
<polygon fill="none" stroke="black" points="361,-340.4 361,-366.4 393,-366.4 393,-340.4 361,-340.4"/>
<text text-anchor="start" x="365.72" y="-349.8" font-family="Times,serif" font-size="14.00">L</text>
<text text-anchor="start" x="374.28" y="-349.8" font-family="Times,serif" baseline-shift="sub" font-size="14.00">x</text>
<text text-anchor="start" x="381.28" y="-349.8" font-family="Times,serif" baseline-shift="sub" font-size="14.00">0</text>
</a>
</g>
<polygon fill="none" stroke="black" points="360,-339.4 360,-367.4 394,-367.4 394,-339.4 360,-339.4"/>
</g>
<!-- 20&#45;&gt;21 -->
<g id="edge22" class="edge">
<title>20&#45;&gt;21</title>
<path fill="none" stroke="black" d="M421,-428.05C421,-415.92 421,-399.42 421,-385.52"/>
<polygon fill="black" stroke="black" points="424.5,-385.51 421,-375.51 417.5,-385.51 424.5,-385.51"/>
<text text-anchor="middle" x="426.25" y="-397.6" font-family="Times,serif" font-size="14.00">⊔</text>
</g>
<!-- 32 -->
<g id="node33" class="node">
<title>32</title>
<ellipse fill="none" stroke="black" cx="493" cy="-357.4" rx="27" ry="18"/>
<text text-anchor="start" x="486" y="-354.2" font-family="Times,serif" font-size="14.00">x</text>
<text text-anchor="start" x="493" y="-354.2" font-family="Times,serif" baseline-shift="sub" font-size="14.00">0</text>
<g id="a_node33_16"><a xlink:href="file:///H:\Università\Progetto IW\labels\33_1" xlink:title="x&lt;sub&gt;0&lt;/sub&gt;">
<polygon fill="none" stroke="black" points="433,-312.4 433,-338.4 465,-338.4 465,-312.4 433,-312.4"/>
<text text-anchor="start" x="437.72" y="-321.8" font-family="Times,serif" font-size="14.00">L</text>
<text text-anchor="start" x="446.28" y="-321.8" font-family="Times,serif" baseline-shift="sub" font-size="14.00">x</text>
<text text-anchor="start" x="453.28" y="-321.8" font-family="Times,serif" baseline-shift="sub" font-size="14.00">0</text>
</a>
</g>
<polygon fill="none" stroke="black" points="432,-311.4 432,-339.4 466,-339.4 466,-311.4 432,-311.4"/>
</g>
<!-- 20&#45;&gt;32 -->
<g id="edge21" class="edge">
<title>20&#45;&gt;32</title>
<path fill="none" stroke="black" d="M433.54,-430.08C444.62,-416.72 460.96,-397.03 473.71,-381.66"/>
<polygon fill="black" stroke="black" points="476.67,-383.57 480.36,-373.64 471.28,-379.1 476.67,-383.57"/>
<text text-anchor="middle" x="469.25" y="-397.6" font-family="Times,serif" font-size="14.00">⊔</text>
</g>
<!-- 22 -->
<g id="node23" class="node">
<title>22</title>
<ellipse fill="none" stroke="black" cx="349" cy="-268.6" rx="27" ry="18"/>
<text text-anchor="start" x="342" y="-265.4" font-family="Times,serif" font-size="14.00">x</text>
<text text-anchor="start" x="349" y="-265.4" font-family="Times,serif" baseline-shift="sub" font-size="14.00">0</text>
<g id="a_node23_17"><a xlink:href="file:///H:\Università\Progetto IW\labels\23_1" xlink:title="x&lt;sub&gt;0&lt;/sub&gt;">
<polygon fill="none" stroke="black" points="289,-287.6 289,-313.6 321,-313.6 321,-287.6 289,-287.6"/>
<text text-anchor="start" x="293.72" y="-297" font-family="Times,serif" font-size="14.00">L</text>
<text text-anchor="start" x="302.28" y="-297" font-family="Times,serif" baseline-shift="sub" font-size="14.00">x</text>
<text text-anchor="start" x="309.28" y="-297" font-family="Times,serif" baseline-shift="sub" font-size="14.00">0</text>
</a>
</g>
<polygon fill="none" stroke="black" points="288,-286.6 288,-314.6 322,-314.6 322,-286.6 288,-286.6"/>
</g>
<!-- 21&#45;&gt;22 -->
<g id="edge24" class="edge">
<title>21&#45;&gt;22</title>
<path fill="none" stroke="black" d="M408.46,-341.28C397.38,-327.92 381.04,-308.23 368.29,-292.86"/>
<polygon fill="black" stroke="black" points="370.72,-290.3 361.64,-284.84 365.33,-294.77 370.72,-290.3"/>
<text text-anchor="middle" x="397.25" y="-308.8" font-family="Times,serif" font-size="14.00">⊔</text>
</g>
<!-- 30 -->
<g id="node31" class="node">
<title>30</title>
<ellipse fill="none" stroke="black" cx="421" cy="-268.6" rx="27" ry="18"/>
<text text-anchor="start" x="414" y="-265.4" font-family="Times,serif" font-size="14.00">x</text>
<text text-anchor="start" x="421" y="-265.4" font-family="Times,serif" baseline-shift="sub" font-size="14.00">0</text>
<g id="a_node31_18"><a xlink:href="file:///H:\Università\Progetto IW\labels\31_1" xlink:title="x&lt;sub&gt;0&lt;/sub&gt;">
<polygon fill="none" stroke="black" points="361,-223.6 361,-249.6 393,-249.6 393,-223.6 361,-223.6"/>
<text text-anchor="start" x="365.72" y="-233" font-family="Times,serif" font-size="14.00">L</text>
<text text-anchor="start" x="374.28" y="-233" font-family="Times,serif" baseline-shift="sub" font-size="14.00">x</text>
<text text-anchor="start" x="381.28" y="-233" font-family="Times,serif" baseline-shift="sub" font-size="14.00">0</text>
</a>
</g>
<polygon fill="none" stroke="black" points="360,-222.6 360,-250.6 394,-250.6 394,-222.6 360,-222.6"/>
</g>
<!-- 21&#45;&gt;30 -->
<g id="edge23" class="edge">
<title>21&#45;&gt;30</title>
<path fill="none" stroke="black" d="M421,-339.25C421,-327.12 421,-310.62 421,-296.72"/>
<polygon fill="black" stroke="black" points="424.5,-296.71 421,-286.71 417.5,-296.71 424.5,-296.71"/>
<text text-anchor="middle" x="426.25" y="-308.8" font-family="Times,serif" font-size="14.00">⊔</text>
</g>
<!-- 23 -->
<g id="node24" class="node">
<title>23</title>
<ellipse fill="none" stroke="black" cx="277" cy="-179.8" rx="27" ry="18"/>
<text text-anchor="start" x="270" y="-176.6" font-family="Times,serif" font-size="14.00">x</text>
<text text-anchor="start" x="277" y="-176.6" font-family="Times,serif" baseline-shift="sub" font-size="14.00">0</text>
<g id="a_node24_19"><a xlink:href="file:///H:\Università\Progetto IW\labels\24_1" xlink:title="x&lt;sub&gt;0&lt;/sub&gt;">
<polygon fill="none" stroke="black" points="217,-198.8 217,-224.8 249,-224.8 249,-198.8 217,-198.8"/>
<text text-anchor="start" x="221.72" y="-208.2" font-family="Times,serif" font-size="14.00">L</text>
<text text-anchor="start" x="230.28" y="-208.2" font-family="Times,serif" baseline-shift="sub" font-size="14.00">x</text>
<text text-anchor="start" x="237.28" y="-208.2" font-family="Times,serif" baseline-shift="sub" font-size="14.00">0</text>
</a>
</g>
<polygon fill="none" stroke="black" points="216,-197.8 216,-225.8 250,-225.8 250,-197.8 216,-197.8"/>
</g>
<!-- 22&#45;&gt;23 -->
<g id="edge26" class="edge">
<title>22&#45;&gt;23</title>
<path fill="none" stroke="black" d="M336.46,-252.48C325.38,-239.12 309.04,-219.43 296.29,-204.06"/>
<polygon fill="black" stroke="black" points="298.72,-201.5 289.64,-196.04 293.33,-205.97 298.72,-201.5"/>
<text text-anchor="middle" x="325.25" y="-220" font-family="Times,serif" font-size="14.00">⊔</text>
</g>
<!-- 25 -->
<g id="node26" class="node">
<title>25</title>
<ellipse fill="none" stroke="black" cx="349" cy="-179.8" rx="27" ry="18"/>
<text text-anchor="start" x="342" y="-176.6" font-family="Times,serif" font-size="14.00">x</text>
<text text-anchor="start" x="349" y="-176.6" font-family="Times,serif" baseline-shift="sub" font-size="14.00">0</text>
<g id="a_node26_20"><a xlink:href="file:///H:\Università\Progetto IW\labels\26_1" xlink:title="x&lt;sub&gt;0&lt;/sub&gt;">
<polygon fill="none" stroke="black" points="289,-134.8 289,-160.8 321,-160.8 321,-134.8 289,-134.8"/>
<text text-anchor="start" x="293.72" y="-144.2" font-family="Times,serif" font-size="14.00">L</text>
<text text-anchor="start" x="302.28" y="-144.2" font-family="Times,serif" baseline-shift="sub" font-size="14.00">x</text>
<text text-anchor="start" x="309.28" y="-144.2" font-family="Times,serif" baseline-shift="sub" font-size="14.00">0</text>
</a>
</g>
<polygon fill="none" stroke="black" points="288,-133.8 288,-161.8 322,-161.8 322,-133.8 288,-133.8"/>
</g>
<!-- 22&#45;&gt;25 -->
<g id="edge25" class="edge">
<title>22&#45;&gt;25</title>
<path fill="none" stroke="black" d="M349,-250.45C349,-238.32 349,-221.82 349,-207.92"/>
<polygon fill="black" stroke="black" points="352.5,-207.91 349,-197.91 345.5,-207.91 352.5,-207.91"/>
<text text-anchor="middle" x="354.25" y="-220" font-family="Times,serif" font-size="14.00">⊔</text>
</g>
<!-- 24 -->
<g id="node25" class="node">
<title>24</title>
<text text-anchor="middle" x="277" y="-86.8" font-family="Times,serif" font-size="14.00" fill="#cc3300">✖</text>
</g>
<!-- 23&#45;&gt;24 -->
<g id="edge27" class="edge">
<title>23&#45;&gt;24</title>
<path fill="none" stroke="black" d="M277,-161.65C277,-149.52 277,-133.02 277,-119.12"/>
<polygon fill="black" stroke="black" points="280.5,-119.11 277,-109.11 273.5,-119.11 280.5,-119.11"/>
</g>
<!-- 26 -->
<g id="node27" class="node">
<title>26</title>
<ellipse fill="none" stroke="black" cx="349" cy="-91" rx="27" ry="18"/>
<text text-anchor="start" x="342" y="-87.8" font-family="Times,serif" font-size="14.00">x</text>
<text text-anchor="start" x="349" y="-87.8" font-family="Times,serif" baseline-shift="sub" font-size="14.00">0</text>
<g id="a_node27_21"><a xlink:href="file:///H:\Università\Progetto IW\labels\27_1" xlink:title="x&lt;sub&gt;0&lt;/sub&gt;">
<polygon fill="none" stroke="black" points="289,-46 289,-72 321,-72 321,-46 289,-46"/>
<text text-anchor="start" x="293.72" y="-55.4" font-family="Times,serif" font-size="14.00">L</text>
<text text-anchor="start" x="302.28" y="-55.4" font-family="Times,serif" baseline-shift="sub" font-size="14.00">x</text>
<text text-anchor="start" x="309.28" y="-55.4" font-family="Times,serif" baseline-shift="sub" font-size="14.00">0</text>
</a>
</g>
<polygon fill="none" stroke="black" points="288,-45 288,-73 322,-73 322,-45 288,-45"/>
</g>
<!-- 25&#45;&gt;26 -->
<g id="edge29" class="edge">
<title>25&#45;&gt;26</title>
<path fill="none" stroke="black" d="M349,-161.65C349,-149.52 349,-133.02 349,-119.12"/>
<polygon fill="black" stroke="black" points="352.5,-119.11 349,-109.11 345.5,-119.11 352.5,-119.11"/>
<text text-anchor="middle" x="354.25" y="-131.2" font-family="Times,serif" font-size="14.00">⊔</text>
</g>
<!-- 28 -->
<g id="node29" class="node">
<title>28</title>
<ellipse fill="none" stroke="black" cx="421" cy="-91" rx="27" ry="18"/>
<text text-anchor="start" x="414" y="-87.8" font-family="Times,serif" font-size="14.00">x</text>
<text text-anchor="start" x="421" y="-87.8" font-family="Times,serif" baseline-shift="sub" font-size="14.00">0</text>
<g id="a_node29_22"><a xlink:href="file:///H:\Università\Progetto IW\labels\29_1" xlink:title="x&lt;sub&gt;0&lt;/sub&gt;">
<polygon fill="none" stroke="black" points="361,-46 361,-72 393,-72 393,-46 361,-46"/>
<text text-anchor="start" x="365.72" y="-55.4" font-family="Times,serif" font-size="14.00">L</text>
<text text-anchor="start" x="374.28" y="-55.4" font-family="Times,serif" baseline-shift="sub" font-size="14.00">x</text>
<text text-anchor="start" x="381.28" y="-55.4" font-family="Times,serif" baseline-shift="sub" font-size="14.00">0</text>
</a>
</g>
<polygon fill="none" stroke="black" points="360,-45 360,-73 394,-73 394,-45 360,-45"/>
</g>
<!-- 25&#45;&gt;28 -->
<g id="edge28" class="edge">
<title>25&#45;&gt;28</title>
<path fill="none" stroke="black" d="M361.54,-163.68C372.62,-150.32 388.96,-130.63 401.71,-115.26"/>
<polygon fill="black" stroke="black" points="404.67,-117.17 408.36,-107.24 399.28,-112.7 404.67,-117.17"/>
<text text-anchor="middle" x="397.25" y="-131.2" font-family="Times,serif" font-size="14.00">⊔</text>
</g>
<!-- 27 -->
<g id="node28" class="node">
<title>27</title>
<text text-anchor="middle" x="349" y="-13.8" font-family="Times,serif" font-size="14.00" fill="#cc3300">✖</text>
</g>
<!-- 26&#45;&gt;27 -->
<g id="edge30" class="edge">
<title>26&#45;&gt;27</title>
<path fill="none" stroke="black" d="M349,-72.81C349,-64.79 349,-55.05 349,-46.07"/>
<polygon fill="black" stroke="black" points="352.5,-46.03 349,-36.03 345.5,-46.03 352.5,-46.03"/>
</g>
<!-- 29 -->
<g id="node30" class="node">
<title>29</title>
<text text-anchor="middle" x="421" y="-13.8" font-family="Times,serif" font-size="14.00" fill="#cc3300">✖</text>
</g>
<!-- 28&#45;&gt;29 -->
<g id="edge31" class="edge">
<title>28&#45;&gt;29</title>
<path fill="none" stroke="black" d="M421,-72.81C421,-64.79 421,-55.05 421,-46.07"/>
<polygon fill="black" stroke="black" points="424.5,-46.03 421,-36.03 417.5,-46.03 424.5,-46.03"/>
</g>
<!-- 31 -->
<g id="node32" class="node">
<title>31</title>
<text text-anchor="middle" x="421" y="-175.6" font-family="Times,serif" font-size="14.00" fill="#cc3300">✖</text>
</g>
<!-- 30&#45;&gt;31 -->
<g id="edge32" class="edge">
<title>30&#45;&gt;31</title>
<path fill="none" stroke="black" d="M421,-250.45C421,-238.32 421,-221.82 421,-207.92"/>
<polygon fill="black" stroke="black" points="424.5,-207.91 421,-197.91 417.5,-207.91 424.5,-207.91"/>
</g>
<!-- 33 -->
<g id="node34" class="node">
<title>33</title>
<ellipse fill="none" stroke="black" cx="493" cy="-268.6" rx="27" ry="18"/>
<text text-anchor="start" x="486" y="-265.4" font-family="Times,serif" font-size="14.00">x</text>
<text text-anchor="start" x="493" y="-265.4" font-family="Times,serif" baseline-shift="sub" font-size="14.00">0</text>
<g id="a_node34_23"><a xlink:href="file:///H:\Università\Progetto IW\labels\34_1" xlink:title="x&lt;sub&gt;0&lt;/sub&gt;">
<polygon fill="none" stroke="black" points="433,-223.6 433,-249.6 465,-249.6 465,-223.6 433,-223.6"/>
<text text-anchor="start" x="437.72" y="-233" font-family="Times,serif" font-size="14.00">L</text>
<text text-anchor="start" x="446.28" y="-233" font-family="Times,serif" baseline-shift="sub" font-size="14.00">x</text>
<text text-anchor="start" x="453.28" y="-233" font-family="Times,serif" baseline-shift="sub" font-size="14.00">0</text>
</a>
</g>
<polygon fill="none" stroke="black" points="432,-222.6 432,-250.6 466,-250.6 466,-222.6 432,-222.6"/>
</g>
<!-- 32&#45;&gt;33 -->
<g id="edge33" class="edge">
<title>32&#45;&gt;33</title>
<path fill="none" stroke="black" d="M493,-339.25C493,-327.12 493,-310.62 493,-296.72"/>
<polygon fill="black" stroke="black" points="496.5,-296.71 493,-286.71 489.5,-296.71 496.5,-296.71"/>
<text text-anchor="middle" x="498.25" y="-308.8" font-family="Times,serif" font-size="14.00">⊔</text>
</g>
<!-- 34 -->
<g id="node35" class="node">
<title>34</title>
<ellipse fill="none" stroke="black" cx="493" cy="-179.8" rx="27" ry="18"/>
<text text-anchor="start" x="486" y="-176.6" font-family="Times,serif" font-size="14.00">x</text>
<text text-anchor="start" x="493" y="-176.6" font-family="Times,serif" baseline-shift="sub" font-size="14.00">0</text>
<g id="a_node35_24"><a xlink:href="file:///H:\Università\Progetto IW\labels\35_1" xlink:title="x&lt;sub&gt;0&lt;/sub&gt;">
<polygon fill="none" stroke="black" points="433,-134.8 433,-160.8 465,-160.8 465,-134.8 433,-134.8"/>
<text text-anchor="start" x="437.72" y="-144.2" font-family="Times,serif" font-size="14.00">L</text>
<text text-anchor="start" x="446.28" y="-144.2" font-family="Times,serif" baseline-shift="sub" font-size="14.00">x</text>
<text text-anchor="start" x="453.28" y="-144.2" font-family="Times,serif" baseline-shift="sub" font-size="14.00">0</text>
</a>
</g>
<polygon fill="none" stroke="black" points="432,-133.8 432,-161.8 466,-161.8 466,-133.8 432,-133.8"/>
</g>
<!-- 33&#45;&gt;34 -->
<g id="edge35" class="edge">
<title>33&#45;&gt;34</title>
<path fill="none" stroke="black" d="M493,-250.45C493,-238.32 493,-221.82 493,-207.92"/>
<polygon fill="black" stroke="black" points="496.5,-207.91 493,-197.91 489.5,-207.91 496.5,-207.91"/>
<text text-anchor="middle" x="498.25" y="-220" font-family="Times,serif" font-size="14.00">⊔</text>
</g>
<!-- 36 -->
<g id="node37" class="node">
<title>36</title>
<ellipse fill="none" stroke="black" cx="565" cy="-179.8" rx="27" ry="18"/>
<text text-anchor="start" x="558" y="-176.6" font-family="Times,serif" font-size="14.00">x</text>
<text text-anchor="start" x="565" y="-176.6" font-family="Times,serif" baseline-shift="sub" font-size="14.00">0</text>
<g id="a_node37_25"><a xlink:href="file:///H:\Università\Progetto IW\labels\37_1" xlink:title="x&lt;sub&gt;0&lt;/sub&gt;">
<polygon fill="none" stroke="black" points="505,-134.8 505,-160.8 537,-160.8 537,-134.8 505,-134.8"/>
<text text-anchor="start" x="509.72" y="-144.2" font-family="Times,serif" font-size="14.00">L</text>
<text text-anchor="start" x="518.28" y="-144.2" font-family="Times,serif" baseline-shift="sub" font-size="14.00">x</text>
<text text-anchor="start" x="525.28" y="-144.2" font-family="Times,serif" baseline-shift="sub" font-size="14.00">0</text>
</a>
</g>
<polygon fill="none" stroke="black" points="504,-133.8 504,-161.8 538,-161.8 538,-133.8 504,-133.8"/>
</g>
<!-- 33&#45;&gt;36 -->
<g id="edge34" class="edge">
<title>33&#45;&gt;36</title>
<path fill="none" stroke="black" d="M505.54,-252.48C516.62,-239.12 532.96,-219.43 545.71,-204.06"/>
<polygon fill="black" stroke="black" points="548.67,-205.97 552.36,-196.04 543.28,-201.5 548.67,-205.97"/>
<text text-anchor="middle" x="541.25" y="-220" font-family="Times,serif" font-size="14.00">⊔</text>
</g>
<!-- 35 -->
<g id="node36" class="node">
<title>35</title>
<text text-anchor="middle" x="493" y="-86.8" font-family="Times,serif" font-size="14.00" fill="#cc3300">✖</text>
</g>
<!-- 34&#45;&gt;35 -->
<g id="edge36" class="edge">
<title>34&#45;&gt;35</title>
<path fill="none" stroke="black" d="M493,-161.65C493,-149.52 493,-133.02 493,-119.12"/>
<polygon fill="black" stroke="black" points="496.5,-119.11 493,-109.11 489.5,-119.11 496.5,-119.11"/>
</g>
<!-- 37 -->
<g id="node38" class="node">
<title>37</title>
<ellipse fill="none" stroke="black" cx="565" cy="-91" rx="27" ry="18"/>
<text text-anchor="start" x="558" y="-87.8" font-family="Times,serif" font-size="14.00">x</text>
<text text-anchor="start" x="565" y="-87.8" font-family="Times,serif" baseline-shift="sub" font-size="14.00">0</text>
<g id="a_node38_26"><a xlink:href="file:///H:\Università\Progetto IW\labels\38_1" xlink:title="x&lt;sub&gt;0&lt;/sub&gt;">
<polygon fill="none" stroke="black" points="505,-46 505,-72 537,-72 537,-46 505,-46"/>
<text text-anchor="start" x="509.72" y="-55.4" font-family="Times,serif" font-size="14.00">L</text>
<text text-anchor="start" x="518.28" y="-55.4" font-family="Times,serif" baseline-shift="sub" font-size="14.00">x</text>
<text text-anchor="start" x="525.28" y="-55.4" font-family="Times,serif" baseline-shift="sub" font-size="14.00">0</text>
</a>
</g>
<polygon fill="none" stroke="black" points="504,-45 504,-73 538,-73 538,-45 504,-45"/>
</g>
<!-- 36&#45;&gt;37 -->
<g id="edge37" class="edge">
<title>36&#45;&gt;37</title>
<path fill="none" stroke="black" d="M565,-161.65C565,-149.52 565,-133.02 565,-119.12"/>
<polygon fill="black" stroke="black" points="568.5,-119.11 565,-109.11 561.5,-119.11 568.5,-119.11"/>
<text text-anchor="middle" x="570.25" y="-131.2" font-family="Times,serif" font-size="14.00">⊔</text>
</g>
<!-- 38 -->
<g id="node39" class="node">
<title>38</title>
<text text-anchor="middle" x="565" y="-13.8" font-family="Times,serif" font-size="14.00" fill="#00cc00">✓</text>
</g>
<!-- 37&#45;&gt;38 -->
<g id="edge38" class="edge">
<title>37&#45;&gt;38</title>
<path fill="none" stroke="black" d="M565,-72.81C565,-64.79 565,-55.05 565,-46.07"/>
<polygon fill="black" stroke="black" points="568.5,-46.03 565,-36.03 561.5,-46.03 568.5,-46.03"/>
</g>
</g>
</svg>
