<svg width="500px" height="1271px"
 viewBox="0.00 0.00 168.00 427.20" xmlns="http://www.w3.org/2000/svg" xmlns:xlink="http://www.w3.org/1999/xlink">
<g id="graph0" class="graph" transform="scale(1.0 1.0) rotate(0.0) translate(4.0 423.2)">
<title>Tableau</title>
<polygon fill="white" stroke="transparent" points="-4,4 -4,-423.2 164,-423.2 164,4 -4,4"/>
<!-- 0 -->
<g id="node1" class="node">
<title>0</title>
<ellipse fill="none" stroke="black" cx="97" cy="-373.2" rx="27" ry="18"/>
<text text-anchor="start" x="90" y="-370" font-family="Times,serif" font-size="14.00">x</text>
<text text-anchor="start" x="97" y="-370" font-family="Times,serif" baseline-shift="sub" font-size="14.00">0</text>
<g id="a_node1_0"><a xlink:href="file:///H:\Università\Progetto IW\labels\1" xlink:title="x&lt;sub&gt;0&lt;/sub&gt;">
<polygon fill="none" stroke="black" points="37,-392.2 37,-418.2 69,-418.2 69,-392.2 37,-392.2"/>
<text text-anchor="start" x="41.72" y="-401.6" font-family="Times,serif" font-size="14.00">L</text>
<text text-anchor="start" x="50.28" y="-401.6" font-family="Times,serif" baseline-shift="sub" font-size="14.00">x</text>
<text text-anchor="start" x="57.28" y="-401.6" font-family="Times,serif" baseline-shift="sub" font-size="14.00">0</text>
</a>
</g>
<polygon fill="none" stroke="black" points="36,-391.2 36,-419.2 70,-419.2 70,-391.2 36,-391.2"/>
</g>
<!-- 1 -->
<g id="node2" class="node">
<title>1</title>
<ellipse fill="none" stroke="black" cx="97" cy="-284.4" rx="27" ry="18"/>
<text text-anchor="start" x="90" y="-281.2" font-family="Times,serif" font-size="14.00">x</text>
<text text-anchor="start" x="97" y="-281.2" font-family="Times,serif" baseline-shift="sub" font-size="14.00">0</text>
<g id="a_node2_1"><a xlink:href="file:///H:\Università\Progetto IW\labels\2" xlink:title="x&lt;sub&gt;0&lt;/sub&gt;">
<polygon fill="none" stroke="black" points="37,-303.4 37,-329.4 69,-329.4 69,-303.4 37,-303.4"/>
<text text-anchor="start" x="41.72" y="-312.8" font-family="Times,serif" font-size="14.00">L</text>
<text text-anchor="start" x="50.28" y="-312.8" font-family="Times,serif" baseline-shift="sub" font-size="14.00">x</text>
<text text-anchor="start" x="57.28" y="-312.8" font-family="Times,serif" baseline-shift="sub" font-size="14.00">0</text>
</a>
</g>
<polygon fill="none" stroke="black" points="36,-302.4 36,-330.4 70,-330.4 70,-302.4 36,-302.4"/>
</g>
<!-- 0&#45;&gt;1 -->
<g id="edge1" class="edge">
<title>0&#45;&gt;1</title>
<path fill="none" stroke="black" d="M97,-355.05C97,-342.92 97,-326.42 97,-312.52"/>
<polygon fill="black" stroke="black" points="100.5,-312.51 97,-302.51 93.5,-312.51 100.5,-312.51"/>
<text text-anchor="middle" x="102.25" y="-324.6" font-family="Times,serif" font-size="14.00">⊔</text>
</g>
<!-- 2 -->
<g id="node3" class="node">
<title>2</title>
<ellipse fill="none" stroke="black" cx="61" cy="-195.6" rx="27" ry="18"/>
<text text-anchor="start" x="54" y="-192.4" font-family="Times,serif" font-size="14.00">x</text>
<text text-anchor="start" x="61" y="-192.4" font-family="Times,serif" baseline-shift="sub" font-size="14.00">0</text>
<g id="a_node3_2"><a xlink:href="file:///H:\Università\Progetto IW\labels\3" xlink:title="x&lt;sub&gt;0&lt;/sub&gt;">
<polygon fill="none" stroke="black" points="1,-214.6 1,-240.6 33,-240.6 33,-214.6 1,-214.6"/>
<text text-anchor="start" x="5.72" y="-224" font-family="Times,serif" font-size="14.00">L</text>
<text text-anchor="start" x="14.28" y="-224" font-family="Times,serif" baseline-shift="sub" font-size="14.00">x</text>
<text text-anchor="start" x="21.28" y="-224" font-family="Times,serif" baseline-shift="sub" font-size="14.00">0</text>
</a>
</g>
<polygon fill="none" stroke="black" points="0,-213.6 0,-241.6 34,-241.6 34,-213.6 0,-213.6"/>
</g>
<!-- 1&#45;&gt;2 -->
<g id="edge3" class="edge">
<title>1&#45;&gt;2</title>
<path fill="none" stroke="black" d="M90.06,-266.66C84.88,-254.18 77.71,-236.88 71.78,-222.6"/>
<polygon fill="black" stroke="black" points="74.98,-221.18 67.92,-213.28 68.52,-223.86 74.98,-221.18"/>
<text text-anchor="middle" x="88.25" y="-235.8" font-family="Times,serif" font-size="14.00">⊔</text>
</g>
<!-- 4 -->
<g id="node5" class="node">
<title>4</title>
<ellipse fill="none" stroke="black" cx="133" cy="-195.6" rx="27" ry="18"/>
<text text-anchor="start" x="126" y="-192.4" font-family="Times,serif" font-size="14.00">x</text>
<text text-anchor="start" x="133" y="-192.4" font-family="Times,serif" baseline-shift="sub" font-size="14.00">0</text>
<g id="a_node5_3"><a xlink:href="file:///H:\Università\Progetto IW\labels\5" xlink:title="x&lt;sub&gt;0&lt;/sub&gt;">
<polygon fill="none" stroke="black" points="73,-150.6 73,-176.6 105,-176.6 105,-150.6 73,-150.6"/>
<text text-anchor="start" x="77.72" y="-160" font-family="Times,serif" font-size="14.00">L</text>
<text text-anchor="start" x="86.28" y="-160" font-family="Times,serif" baseline-shift="sub" font-size="14.00">x</text>
<text text-anchor="start" x="93.28" y="-160" font-family="Times,serif" baseline-shift="sub" font-size="14.00">0</text>
</a>
</g>
<polygon fill="none" stroke="black" points="72,-149.6 72,-177.6 106,-177.6 106,-149.6 72,-149.6"/>
</g>
<!-- 1&#45;&gt;4 -->
<g id="edge2" class="edge">
<title>1&#45;&gt;4</title>
<path fill="none" stroke="black" d="M103.94,-266.66C109.12,-254.18 116.29,-236.88 122.22,-222.6"/>
<polygon fill="black" stroke="black" points="125.48,-223.86 126.08,-213.28 119.02,-221.18 125.48,-223.86"/>
<text text-anchor="middle" x="123.25" y="-235.8" font-family="Times,serif" font-size="14.00">⊔</text>
</g>
<!-- 3 -->
<g id="node4" class="node">
<title>3</title>
<text text-anchor="middle" x="61" y="-102.6" font-family="Times,serif" font-size="14.00" fill="#cc3300">✖</text>
</g>
<!-- 2&#45;&gt;3 -->
<g id="edge4" class="edge">
<title>2&#45;&gt;3</title>
<path fill="none" stroke="black" d="M61,-177.45C61,-165.32 61,-148.82 61,-134.92"/>
<polygon fill="black" stroke="black" points="64.5,-134.91 61,-124.91 57.5,-134.91 64.5,-134.91"/>
</g>
<!-- 5 -->
<g id="node6" class="node">
<title>5</title>
<ellipse fill="none" stroke="black" cx="133" cy="-106.8" rx="27" ry="18"/>
<text text-anchor="start" x="126" y="-103.6" font-family="Times,serif" font-size="14.00">x</text>
<text text-anchor="start" x="133" y="-103.6" font-family="Times,serif" baseline-shift="sub" font-size="14.00">1</text>
<g id="a_node6_4"><a xlink:href="file:///H:\Università\Progetto IW\labels\6" xlink:title="x&lt;sub&gt;1&lt;/sub&gt;">
<polygon fill="none" stroke="black" points="73,-61.8 73,-87.8 105,-87.8 105,-61.8 73,-61.8"/>
<text text-anchor="start" x="77.72" y="-71.2" font-family="Times,serif" font-size="14.00">L</text>
<text text-anchor="start" x="86.28" y="-71.2" font-family="Times,serif" baseline-shift="sub" font-size="14.00">x</text>
<text text-anchor="start" x="93.28" y="-71.2" font-family="Times,serif" baseline-shift="sub" font-size="14.00">1</text>
</a>
</g>
<polygon fill="none" stroke="black" points="72,-60.8 72,-88.8 106,-88.8 106,-60.8 72,-60.8"/>
</g>
<!-- 4&#45;&gt;5 -->
<g id="edge5" class="edge">
<title>4&#45;&gt;5</title>
<path fill="none" stroke="black" d="M133,-177.45C133,-165.32 133,-148.82 133,-134.92"/>
<polygon fill="black" stroke="black" points="136.5,-134.91 133,-124.91 129.5,-134.91 136.5,-134.91"/>
<text text-anchor="middle" x="137.67" y="-147" font-family="Times,serif" font-size="14.00">R</text>
</g>
<!-- 6 -->
<g id="node7" class="node">
<title>6</title>
<ellipse fill="none" stroke="black" cx="133" cy="-18" rx="27" ry="18"/>
<text text-anchor="start" x="126" y="-14.8" font-family="Times,serif" font-size="14.00">x</text>
<text text-anchor="start" x="133" y="-14.8" font-family="Times,serif" baseline-shift="sub" font-size="14.00">1</text>
</g>
<!-- 5&#45;&gt;6 -->
<g id="edge6" class="edge">
<title>5&#45;&gt;6</title>
<path fill="none" stroke="black" d="M133,-88.65C133,-76.52 133,-60.02 133,-46.12"/>
<polygon fill="black" stroke="black" points="136.5,-46.11 133,-36.11 129.5,-46.11 136.5,-46.11"/>
<text text-anchor="middle" x="138.25" y="-58.2" font-family="Times,serif" font-size="14.00">⊔</text>
</g>
</g>
</svg>
