<svg width="500px" height="745px"
 viewBox="0.00 0.00 96.00 143.00" xmlns="http://www.w3.org/2000/svg" xmlns:xlink="http://www.w3.org/1999/xlink">
<g id="graph0" class="graph" transform="scale(1.0 1.0) rotate(0.0) translate(4.0 139.0)">
<title>Tableau</title>
<polygon fill="white" stroke="transparent" points="-4,4 -4,-139 92,-139 92,4 -4,4"/>
<!-- 0 -->
<g id="node1" class="node">
<title>0</title>
<ellipse fill="none" stroke="black" cx="61" cy="-90" rx="27" ry="18"/>
<text text-anchor="start" x="54" y="-87.3" font-family="Times New Roman,serif" font-size="14.00">x</text>
<text text-anchor="start" x="61" y="-87.3" font-family="Times New Roman,serif" baseline-shift="sub" font-size="14.00">0</text>
<g id="a_node1_0"><a xlink:href="file:///C:\Users\gpepp\Desktop\Universita\Magistrale\Intelligent Web\ProgettoIW\labels\1_10" xlink:title="x&lt;sub&gt;0&lt;/sub&gt;">
<polygon fill="none" stroke="black" points="1,-108.5 1,-133.5 33,-133.5 33,-108.5 1,-108.5"/>
<text text-anchor="start" x="6" y="-118.3" font-family="Times New Roman,serif" font-size="14.00">L</text>
<text text-anchor="start" x="15" y="-118.3" font-family="Times New Roman,serif" baseline-shift="sub" font-size="14.00">x</text>
<text text-anchor="start" x="21" y="-118.3" font-family="Times New Roman,serif" baseline-shift="sub" font-size="14.00">0</text>
</a>
</g>
<polygon fill="none" stroke="black" points="0,-108 0,-135 34,-135 34,-108 0,-108"/>
</g>
<!-- 1 -->
<g id="node2" class="node">
<title>1</title>
<text text-anchor="middle" x="61" y="-14.3" font-family="Times New Roman,serif" font-size="14.00" fill="#cc3300">✖</text>
</g>
<!-- 0&#45;&gt;1 -->
<g id="edge1" class="edge">
<title>0&#45;&gt;1</title>
<path fill="none" stroke="black" d="M61,-71.7C61,-63.98 61,-54.71 61,-46.11"/>
<polygon fill="black" stroke="black" points="64.5,-46.1 61,-36.1 57.5,-46.1 64.5,-46.1"/>
</g>
</g>
</svg>
