<svg width="500px" height="1682px"
 viewBox="0.00 0.00 96.00 322.60" xmlns="http://www.w3.org/2000/svg" xmlns:xlink="http://www.w3.org/1999/xlink">
<g id="graph0" class="graph" transform="scale(1.0 1.0) rotate(0.0) translate(4.0 318.6)">
<title>Tableau</title>
<polygon fill="white" stroke="transparent" points="-4,4 -4,-318.6 92,-318.6 92,4 -4,4"/>
<!-- 0 -->
<g id="node1" class="node">
<title>0</title>
<ellipse fill="none" stroke="black" cx="61" cy="-268.6" rx="27" ry="18"/>
<text text-anchor="start" x="54" y="-265.4" font-family="Times,serif" font-size="14.00">x</text>
<text text-anchor="start" x="61" y="-265.4" font-family="Times,serif" baseline-shift="sub" font-size="14.00">0</text>
<g id="a_node1_0"><a xlink:href="file:///H:\Università\Progetto IW\labels\1_11" xlink:title="x&lt;sub&gt;0&lt;/sub&gt;">
<polygon fill="none" stroke="black" points="1,-287.6 1,-313.6 33,-313.6 33,-287.6 1,-287.6"/>
<text text-anchor="start" x="5.72" y="-297" font-family="Times,serif" font-size="14.00">L</text>
<text text-anchor="start" x="14.28" y="-297" font-family="Times,serif" baseline-shift="sub" font-size="14.00">x</text>
<text text-anchor="start" x="21.28" y="-297" font-family="Times,serif" baseline-shift="sub" font-size="14.00">0</text>
</a>
</g>
<polygon fill="none" stroke="black" points="0,-286.6 0,-314.6 34,-314.6 34,-286.6 0,-286.6"/>
</g>
<!-- 1 -->
<g id="node2" class="node">
<title>1</title>
<ellipse fill="none" stroke="black" cx="61" cy="-179.8" rx="27" ry="18"/>
<text text-anchor="start" x="54" y="-176.6" font-family="Times,serif" font-size="14.00">x</text>
<text text-anchor="start" x="61" y="-176.6" font-family="Times,serif" baseline-shift="sub" font-size="14.00">0</text>
<g id="a_node2_1"><a xlink:href="file:///H:\Università\Progetto IW\labels\2_8" xlink:title="x&lt;sub&gt;0&lt;/sub&gt;">
<polygon fill="none" stroke="black" points="1,-198.8 1,-224.8 33,-224.8 33,-198.8 1,-198.8"/>
<text text-anchor="start" x="5.72" y="-208.2" font-family="Times,serif" font-size="14.00">L</text>
<text text-anchor="start" x="14.28" y="-208.2" font-family="Times,serif" baseline-shift="sub" font-size="14.00">x</text>
<text text-anchor="start" x="21.28" y="-208.2" font-family="Times,serif" baseline-shift="sub" font-size="14.00">0</text>
</a>
</g>
<polygon fill="none" stroke="black" points="0,-197.8 0,-225.8 34,-225.8 34,-197.8 0,-197.8"/>
</g>
<!-- 0&#45;&gt;1 -->
<g id="edge1" class="edge">
<title>0&#45;&gt;1</title>
<path fill="none" stroke="black" d="M61,-250.45C61,-238.32 61,-221.82 61,-207.92"/>
<polygon fill="black" stroke="black" points="64.5,-207.91 61,-197.91 57.5,-207.91 64.5,-207.91"/>
<text text-anchor="middle" x="66.25" y="-220" font-family="Times,serif" font-size="14.00">⊔</text>
</g>
<!-- 2 -->
<g id="node3" class="node">
<title>2</title>
<ellipse fill="none" stroke="black" cx="61" cy="-91" rx="27" ry="18"/>
<text text-anchor="start" x="54" y="-87.8" font-family="Times,serif" font-size="14.00">x</text>
<text text-anchor="start" x="61" y="-87.8" font-family="Times,serif" baseline-shift="sub" font-size="14.00">1</text>
<g id="a_node3_2"><a xlink:href="file:///H:\Università\Progetto IW\labels\3_8" xlink:title="x&lt;sub&gt;1&lt;/sub&gt;">
<polygon fill="none" stroke="black" points="1,-110 1,-136 33,-136 33,-110 1,-110"/>
<text text-anchor="start" x="5.72" y="-119.4" font-family="Times,serif" font-size="14.00">L</text>
<text text-anchor="start" x="14.28" y="-119.4" font-family="Times,serif" baseline-shift="sub" font-size="14.00">x</text>
<text text-anchor="start" x="21.28" y="-119.4" font-family="Times,serif" baseline-shift="sub" font-size="14.00">1</text>
</a>
</g>
<polygon fill="none" stroke="black" points="0,-109 0,-137 34,-137 34,-109 0,-109"/>
</g>
<!-- 1&#45;&gt;2 -->
<g id="edge2" class="edge">
<title>1&#45;&gt;2</title>
<path fill="none" stroke="black" d="M61,-161.65C61,-149.52 61,-133.02 61,-119.12"/>
<polygon fill="black" stroke="black" points="64.5,-119.11 61,-109.11 57.5,-119.11 64.5,-119.11"/>
<text text-anchor="middle" x="65.67" y="-131.2" font-family="Times,serif" font-size="14.00">R</text>
</g>
<!-- 3 -->
<g id="node4" class="node">
<title>3</title>
<text text-anchor="middle" x="61" y="-13.8" font-family="Times,serif" font-size="14.00" fill="#00cc00">✓</text>
</g>
<!-- 2&#45;&gt;3 -->
<g id="edge3" class="edge">
<title>2&#45;&gt;3</title>
<path fill="none" stroke="black" d="M61,-72.81C61,-64.79 61,-55.05 61,-46.07"/>
<polygon fill="black" stroke="black" points="64.5,-46.03 61,-36.03 57.5,-46.03 64.5,-46.03"/>
</g>
</g>
</svg>
