<svg width="500px" height="2448px"
 viewBox="0.00 0.00 153.00 749.00" xmlns="http://www.w3.org/2000/svg" xmlns:xlink="http://www.w3.org/1999/xlink">
<g id="graph0" class="graph" transform="scale(1.0 1.0) rotate(0.0) translate(4.0 745.0)">
<title>Tableau</title>
<polygon fill="white" stroke="transparent" points="-4,4 -4,-745 149,-745 149,4 -4,4"/>
<!-- 0 -->
<g id="node1" class="node">
<title>0</title>
<ellipse fill="none" stroke="black" cx="72" cy="-700" rx="27" ry="18"/>
<text text-anchor="middle" x="72" y="-696.3" font-family="Times New Roman,serif" font-size="14.00">x_0</text>
<g id="a_node1_0"><a xlink:href="file:///C:\Users\gpepp\Desktop\Universita\Magistrale\Intelligent Web\ProgettoIW\labels\1_19" xlink:title="x_0">
<polygon fill="none" stroke="black" points="1.5,-718.5 1.5,-739.5 44.5,-739.5 44.5,-718.5 1.5,-718.5"/>
<text text-anchor="start" x="4.5" y="-725.3" font-family="Times New Roman,serif" font-size="14.00">L_x_0</text>
</a>
</g>
<polygon fill="none" stroke="black" points="0,-718 0,-741 45,-741 45,-718 0,-718"/>
</g>
<!-- 1 -->
<g id="node2" class="node">
<title>1</title>
<ellipse fill="none" stroke="black" cx="72" cy="-613" rx="27" ry="18"/>
<text text-anchor="middle" x="72" y="-609.3" font-family="Times New Roman,serif" font-size="14.00">x_0</text>
<g id="a_node2_1"><a xlink:href="file:///C:\Users\gpepp\Desktop\Universita\Magistrale\Intelligent Web\ProgettoIW\labels\2_16" xlink:title="x_0">
<polygon fill="none" stroke="black" points="1.5,-631.5 1.5,-652.5 44.5,-652.5 44.5,-631.5 1.5,-631.5"/>
<text text-anchor="start" x="4.5" y="-638.3" font-family="Times New Roman,serif" font-size="14.00">L_x_0</text>
</a>
</g>
<polygon fill="none" stroke="black" points="0,-631 0,-654 45,-654 45,-631 0,-631"/>
</g>
<!-- 0&#45;&gt;1 -->
<g id="edge1" class="edge">
<title>0&#45;&gt;1</title>
<path fill="none" stroke="black" d="M72,-681.8C72,-670.16 72,-654.55 72,-641.24"/>
<polygon fill="black" stroke="black" points="75.5,-641.18 72,-631.18 68.5,-641.18 75.5,-641.18"/>
<text text-anchor="middle" x="81" y="-652.8" font-family="Times New Roman,serif" font-size="14.00">⊔</text>
</g>
<!-- 2 -->
<g id="node3" class="node">
<title>2</title>
<ellipse fill="none" stroke="black" cx="72" cy="-526" rx="27" ry="18"/>
<text text-anchor="middle" x="72" y="-522.3" font-family="Times New Roman,serif" font-size="14.00">x_0</text>
<g id="a_node3_2"><a xlink:href="file:///C:\Users\gpepp\Desktop\Universita\Magistrale\Intelligent Web\ProgettoIW\labels\3_16" xlink:title="x_0">
<polygon fill="none" stroke="black" points="1.5,-544.5 1.5,-565.5 44.5,-565.5 44.5,-544.5 1.5,-544.5"/>
<text text-anchor="start" x="4.5" y="-551.3" font-family="Times New Roman,serif" font-size="14.00">L_x_0</text>
</a>
</g>
<polygon fill="none" stroke="black" points="0,-544 0,-567 45,-567 45,-544 0,-544"/>
</g>
<!-- 1&#45;&gt;2 -->
<g id="edge2" class="edge">
<title>1&#45;&gt;2</title>
<path fill="none" stroke="black" d="M72,-594.8C72,-583.16 72,-567.55 72,-554.24"/>
<polygon fill="black" stroke="black" points="75.5,-554.18 72,-544.18 68.5,-554.18 75.5,-554.18"/>
<text text-anchor="middle" x="81" y="-565.8" font-family="Times New Roman,serif" font-size="14.00">⊔</text>
</g>
<!-- 3 -->
<g id="node4" class="node">
<title>3</title>
<ellipse fill="none" stroke="black" cx="72" cy="-439" rx="27" ry="18"/>
<text text-anchor="middle" x="72" y="-435.3" font-family="Times New Roman,serif" font-size="14.00">x_1</text>
<g id="a_node4_3"><a xlink:href="file:///C:\Users\gpepp\Desktop\Universita\Magistrale\Intelligent Web\ProgettoIW\labels\4_13" xlink:title="x_1">
<polygon fill="none" stroke="black" points="1.5,-457.5 1.5,-478.5 44.5,-478.5 44.5,-457.5 1.5,-457.5"/>
<text text-anchor="start" x="4.5" y="-464.3" font-family="Times New Roman,serif" font-size="14.00">L_x_1</text>
</a>
</g>
<polygon fill="none" stroke="black" points="0,-457 0,-480 45,-480 45,-457 0,-457"/>
</g>
<!-- 2&#45;&gt;3 -->
<g id="edge3" class="edge">
<title>2&#45;&gt;3</title>
<path fill="none" stroke="black" d="M72,-507.8C72,-496.16 72,-480.55 72,-467.24"/>
<polygon fill="black" stroke="black" points="75.5,-467.18 72,-457.18 68.5,-467.18 75.5,-467.18"/>
<text text-anchor="middle" x="77" y="-478.8" font-family="Times New Roman,serif" font-size="14.00">R</text>
</g>
<!-- 4 -->
<g id="node5" class="node">
<title>4</title>
<ellipse fill="none" stroke="black" cx="72" cy="-352" rx="27" ry="18"/>
<text text-anchor="middle" x="72" y="-348.3" font-family="Times New Roman,serif" font-size="14.00">x_1</text>
<g id="a_node5_4"><a xlink:href="file:///C:\Users\gpepp\Desktop\Universita\Magistrale\Intelligent Web\ProgettoIW\labels\5_16" xlink:title="x_1">
<polygon fill="none" stroke="black" points="1.5,-370.5 1.5,-391.5 44.5,-391.5 44.5,-370.5 1.5,-370.5"/>
<text text-anchor="start" x="4.5" y="-377.3" font-family="Times New Roman,serif" font-size="14.00">L_x_1</text>
</a>
</g>
<polygon fill="none" stroke="black" points="0,-370 0,-393 45,-393 45,-370 0,-370"/>
</g>
<!-- 3&#45;&gt;4 -->
<g id="edge4" class="edge">
<title>3&#45;&gt;4</title>
<path fill="none" stroke="black" d="M72,-420.8C72,-409.16 72,-393.55 72,-380.24"/>
<polygon fill="black" stroke="black" points="75.5,-380.18 72,-370.18 68.5,-380.18 75.5,-380.18"/>
<text text-anchor="middle" x="81" y="-391.8" font-family="Times New Roman,serif" font-size="14.00">⊔</text>
</g>
<!-- 5 -->
<g id="node6" class="node">
<title>5</title>
<text text-anchor="middle" x="46" y="-261.3" font-family="Times New Roman,serif" font-size="14.00" fill="#00cc00">✓</text>
</g>
<!-- 4&#45;&gt;5 -->
<g id="edge6" class="edge">
<title>4&#45;&gt;5</title>
<path fill="none" stroke="black" d="M66.86,-334.21C63.25,-322.41 58.35,-306.38 54.2,-292.82"/>
<polygon fill="black" stroke="black" points="57.49,-291.59 51.22,-283.05 50.79,-293.64 57.49,-291.59"/>
</g>
<!-- 6 -->
<g id="node7" class="node">
<title>6</title>
<ellipse fill="none" stroke="black" cx="118" cy="-265" rx="27" ry="18"/>
<text text-anchor="middle" x="118" y="-261.3" font-family="Times New Roman,serif" font-size="14.00">x_2</text>
<g id="a_node7_5"><a xlink:href="file:///C:\Users\gpepp\Desktop\Universita\Magistrale\Intelligent Web\ProgettoIW\labels\7_9" xlink:title="x_2">
<polygon fill="none" stroke="black" points="47.5,-283.5 47.5,-304.5 90.5,-304.5 90.5,-283.5 47.5,-283.5"/>
<text text-anchor="start" x="50.5" y="-290.3" font-family="Times New Roman,serif" font-size="14.00">L_x_2</text>
</a>
</g>
<polygon fill="none" stroke="black" points="46,-283 46,-306 91,-306 91,-283 46,-283"/>
</g>
<!-- 4&#45;&gt;6 -->
<g id="edge5" class="edge">
<title>4&#45;&gt;6</title>
<path fill="none" stroke="black" d="M80.87,-334.61C87.53,-322.3 96.77,-305.23 104.37,-291.19"/>
<polygon fill="black" stroke="black" points="107.63,-292.51 109.31,-282.05 101.48,-289.18 107.63,-292.51"/>
<text text-anchor="middle" x="102" y="-304.8" font-family="Times New Roman,serif" font-size="14.00">R</text>
</g>
<!-- 7 -->
<g id="node8" class="node">
<title>7</title>
<ellipse fill="none" stroke="black" cx="118" cy="-178" rx="27" ry="18"/>
<text text-anchor="middle" x="118" y="-174.3" font-family="Times New Roman,serif" font-size="14.00">x_2</text>
<g id="a_node8_6"><a xlink:href="file:///C:\Users\gpepp\Desktop\Universita\Magistrale\Intelligent Web\ProgettoIW\labels\8_3" xlink:title="x_2">
<polygon fill="none" stroke="black" points="47.5,-196.5 47.5,-217.5 90.5,-217.5 90.5,-196.5 47.5,-196.5"/>
<text text-anchor="start" x="50.5" y="-203.3" font-family="Times New Roman,serif" font-size="14.00">L_x_2</text>
</a>
</g>
<polygon fill="none" stroke="black" points="46,-196 46,-219 91,-219 91,-196 46,-196"/>
</g>
<!-- 6&#45;&gt;7 -->
<g id="edge7" class="edge">
<title>6&#45;&gt;7</title>
<path fill="none" stroke="black" d="M118,-246.8C118,-235.16 118,-219.55 118,-206.24"/>
<polygon fill="black" stroke="black" points="121.5,-206.18 118,-196.18 114.5,-206.18 121.5,-206.18"/>
<text text-anchor="middle" x="127" y="-217.8" font-family="Times New Roman,serif" font-size="14.00">⊔</text>
</g>
<!-- 8 -->
<g id="node9" class="node">
<title>8</title>
<ellipse fill="none" stroke="black" cx="118" cy="-91" rx="27" ry="18"/>
<text text-anchor="middle" x="118" y="-87.3" font-family="Times New Roman,serif" font-size="14.00">x_2</text>
<g id="a_node9_7"><a xlink:href="file:///C:\Users\gpepp\Desktop\Universita\Magistrale\Intelligent Web\ProgettoIW\labels\9_8" xlink:title="x_2">
<polygon fill="none" stroke="black" points="47.5,-109.5 47.5,-130.5 90.5,-130.5 90.5,-109.5 47.5,-109.5"/>
<text text-anchor="start" x="50.5" y="-116.3" font-family="Times New Roman,serif" font-size="14.00">L_x_2</text>
</a>
</g>
<polygon fill="none" stroke="black" points="46,-109 46,-132 91,-132 91,-109 46,-109"/>
</g>
<!-- 7&#45;&gt;8 -->
<g id="edge8" class="edge">
<title>7&#45;&gt;8</title>
<path fill="none" stroke="black" d="M118,-159.8C118,-148.16 118,-132.55 118,-119.24"/>
<polygon fill="black" stroke="black" points="121.5,-119.18 118,-109.18 114.5,-119.18 121.5,-119.18"/>
<text text-anchor="middle" x="127" y="-130.8" font-family="Times New Roman,serif" font-size="14.00">⊔</text>
</g>
<!-- 9 -->
<g id="node10" class="node">
<title>9</title>
<text text-anchor="middle" x="118" y="-14.3" font-family="Times New Roman,serif" font-size="14.00" fill="#00cc00">✓</text>
</g>
<!-- 8&#45;&gt;9 -->
<g id="edge9" class="edge">
<title>8&#45;&gt;9</title>
<path fill="none" stroke="black" d="M118,-72.81C118,-64.79 118,-55.05 118,-46.07"/>
<polygon fill="black" stroke="black" points="121.5,-46.03 118,-36.03 114.5,-46.03 121.5,-46.03"/>
</g>
</g>
</svg>
