<svg width="500px" height="960px"
 viewBox="0.00 0.00 214.00 411.40" xmlns="http://www.w3.org/2000/svg" xmlns:xlink="http://www.w3.org/1999/xlink">
<g id="graph0" class="graph" transform="scale(1.0 1.0) rotate(0.0) translate(4.0 407.4)">
<title>Tableau</title>
<polygon fill="white" stroke="transparent" points="-4,4 -4,-407.4 210,-407.4 210,4 -4,4"/>
<!-- 0 -->
<g id="node1" class="node">
<title>0</title>
<ellipse fill="none" stroke="black" cx="97" cy="-357.4" rx="27" ry="18"/>
<text text-anchor="start" x="90" y="-354.2" font-family="Times,serif" font-size="14.00">x</text>
<text text-anchor="start" x="97" y="-354.2" font-family="Times,serif" baseline-shift="sub" font-size="14.00">0</text>
<g id="a_node1_0"><a xlink:href="file:///H:\Università\Progetto IW\labels\1_29" xlink:title="x&lt;sub&gt;0&lt;/sub&gt;">
<polygon fill="none" stroke="black" points="37,-376.4 37,-402.4 69,-402.4 69,-376.4 37,-376.4"/>
<text text-anchor="start" x="41.72" y="-385.8" font-family="Times,serif" font-size="14.00">L</text>
<text text-anchor="start" x="50.28" y="-385.8" font-family="Times,serif" baseline-shift="sub" font-size="14.00">x</text>
<text text-anchor="start" x="57.28" y="-385.8" font-family="Times,serif" baseline-shift="sub" font-size="14.00">0</text>
</a>
</g>
<polygon fill="none" stroke="black" points="36,-375.4 36,-403.4 70,-403.4 70,-375.4 36,-375.4"/>
</g>
<!-- 1 -->
<g id="node2" class="node">
<title>1</title>
<ellipse fill="none" stroke="black" cx="61" cy="-268.6" rx="27" ry="18"/>
<text text-anchor="start" x="54" y="-265.4" font-family="Times,serif" font-size="14.00">x</text>
<text text-anchor="start" x="61" y="-265.4" font-family="Times,serif" baseline-shift="sub" font-size="14.00">0</text>
<g id="a_node2_1"><a xlink:href="file:///H:\Università\Progetto IW\labels\2_19" xlink:title="x&lt;sub&gt;0&lt;/sub&gt;">
<polygon fill="none" stroke="black" points="1,-287.6 1,-313.6 33,-313.6 33,-287.6 1,-287.6"/>
<text text-anchor="start" x="5.72" y="-297" font-family="Times,serif" font-size="14.00">L</text>
<text text-anchor="start" x="14.28" y="-297" font-family="Times,serif" baseline-shift="sub" font-size="14.00">x</text>
<text text-anchor="start" x="21.28" y="-297" font-family="Times,serif" baseline-shift="sub" font-size="14.00">0</text>
</a>
</g>
<polygon fill="none" stroke="black" points="0,-286.6 0,-314.6 34,-314.6 34,-286.6 0,-286.6"/>
</g>
<!-- 0&#45;&gt;1 -->
<g id="edge2" class="edge">
<title>0&#45;&gt;1</title>
<path fill="none" stroke="black" d="M90.06,-339.66C84.88,-327.18 77.71,-309.88 71.78,-295.6"/>
<polygon fill="black" stroke="black" points="74.98,-294.18 67.92,-286.28 68.52,-296.86 74.98,-294.18"/>
<text text-anchor="middle" x="88.25" y="-308.8" font-family="Times,serif" font-size="14.00">⊔</text>
</g>
<!-- 3 -->
<g id="node4" class="node">
<title>3</title>
<ellipse fill="none" stroke="black" cx="133" cy="-268.6" rx="27" ry="18"/>
<text text-anchor="start" x="126" y="-265.4" font-family="Times,serif" font-size="14.00">x</text>
<text text-anchor="start" x="133" y="-265.4" font-family="Times,serif" baseline-shift="sub" font-size="14.00">0</text>
<g id="a_node4_2"><a xlink:href="file:///H:\Università\Progetto IW\labels\4_4" xlink:title="x&lt;sub&gt;0&lt;/sub&gt;">
<polygon fill="none" stroke="black" points="73,-223.6 73,-249.6 105,-249.6 105,-223.6 73,-223.6"/>
<text text-anchor="start" x="77.72" y="-233" font-family="Times,serif" font-size="14.00">L</text>
<text text-anchor="start" x="86.28" y="-233" font-family="Times,serif" baseline-shift="sub" font-size="14.00">x</text>
<text text-anchor="start" x="93.28" y="-233" font-family="Times,serif" baseline-shift="sub" font-size="14.00">0</text>
</a>
</g>
<polygon fill="none" stroke="black" points="72,-222.6 72,-250.6 106,-250.6 106,-222.6 72,-222.6"/>
</g>
<!-- 0&#45;&gt;3 -->
<g id="edge1" class="edge">
<title>0&#45;&gt;3</title>
<path fill="none" stroke="black" d="M103.94,-339.66C109.12,-327.18 116.29,-309.88 122.22,-295.6"/>
<polygon fill="black" stroke="black" points="125.48,-296.86 126.08,-286.28 119.02,-294.18 125.48,-296.86"/>
<text text-anchor="middle" x="124.25" y="-308.8" font-family="Times,serif" font-size="14.00">⊔</text>
</g>
<!-- 2 -->
<g id="node3" class="node">
<title>2</title>
<text text-anchor="middle" x="61" y="-175.6" font-family="Times,serif" font-size="14.00" fill="#cc3300">✖</text>
</g>
<!-- 1&#45;&gt;2 -->
<g id="edge3" class="edge">
<title>1&#45;&gt;2</title>
<path fill="none" stroke="black" d="M61,-250.45C61,-238.32 61,-221.82 61,-207.92"/>
<polygon fill="black" stroke="black" points="64.5,-207.91 61,-197.91 57.5,-207.91 64.5,-207.91"/>
</g>
<!-- 4 -->
<g id="node5" class="node">
<title>4</title>
<ellipse fill="none" stroke="black" cx="133" cy="-179.8" rx="27" ry="18"/>
<text text-anchor="start" x="126" y="-176.6" font-family="Times,serif" font-size="14.00">x</text>
<text text-anchor="start" x="133" y="-176.6" font-family="Times,serif" baseline-shift="sub" font-size="14.00">1</text>
<g id="a_node5_3"><a xlink:href="file:///H:\Università\Progetto IW\labels\5_3" xlink:title="x&lt;sub&gt;1&lt;/sub&gt;">
<polygon fill="none" stroke="black" points="73,-134.8 73,-160.8 105,-160.8 105,-134.8 73,-134.8"/>
<text text-anchor="start" x="77.72" y="-144.2" font-family="Times,serif" font-size="14.00">L</text>
<text text-anchor="start" x="86.28" y="-144.2" font-family="Times,serif" baseline-shift="sub" font-size="14.00">x</text>
<text text-anchor="start" x="93.28" y="-144.2" font-family="Times,serif" baseline-shift="sub" font-size="14.00">1</text>
</a>
</g>
<polygon fill="none" stroke="black" points="72,-133.8 72,-161.8 106,-161.8 106,-133.8 72,-133.8"/>
</g>
<!-- 3&#45;&gt;4 -->
<g id="edge4" class="edge">
<title>3&#45;&gt;4</title>
<path fill="none" stroke="black" d="M133,-250.45C133,-238.32 133,-221.82 133,-207.92"/>
<polygon fill="black" stroke="black" points="136.5,-207.91 133,-197.91 129.5,-207.91 136.5,-207.91"/>
<text text-anchor="middle" x="137.67" y="-220" font-family="Times,serif" font-size="14.00">R</text>
</g>
<!-- 5 -->
<g id="node6" class="node">
<title>5</title>
<text text-anchor="middle" x="107" y="-86.8" font-family="Times,serif" font-size="14.00" fill="#00cc00">⬤</text>
</g>
<!-- 4&#45;&gt;5 -->
<g id="edge6" class="edge">
<title>4&#45;&gt;5</title>
<path fill="none" stroke="black" d="M127.99,-162.06C124.33,-149.85 119.3,-133.05 115.07,-118.96"/>
<polygon fill="black" stroke="black" points="118.4,-117.85 112.18,-109.28 111.69,-119.86 118.4,-117.85"/>
</g>
<!-- 6 -->
<g id="node7" class="node">
<title>6</title>
<ellipse fill="none" stroke="black" cx="179" cy="-91" rx="27" ry="18"/>
<text text-anchor="start" x="172" y="-87.8" font-family="Times,serif" font-size="14.00">x</text>
<text text-anchor="start" x="179" y="-87.8" font-family="Times,serif" baseline-shift="sub" font-size="14.00">2</text>
<g id="a_node7_4"><a xlink:href="file:///H:\Università\Progetto IW\labels\7_1" xlink:title="x&lt;sub&gt;2&lt;/sub&gt;">
<polygon fill="none" stroke="black" points="119,-110 119,-136 151,-136 151,-110 119,-110"/>
<text text-anchor="start" x="123.72" y="-119.4" font-family="Times,serif" font-size="14.00">L</text>
<text text-anchor="start" x="132.28" y="-119.4" font-family="Times,serif" baseline-shift="sub" font-size="14.00">x</text>
<text text-anchor="start" x="139.28" y="-119.4" font-family="Times,serif" baseline-shift="sub" font-size="14.00">2</text>
</a>
</g>
<polygon fill="none" stroke="black" points="118,-109 118,-137 152,-137 152,-109 118,-109"/>
</g>
<!-- 4&#45;&gt;6 -->
<g id="edge5" class="edge">
<title>4&#45;&gt;6</title>
<path fill="none" stroke="black" d="M141.65,-162.47C148.4,-149.74 157.89,-131.84 165.61,-117.26"/>
<polygon fill="black" stroke="black" points="168.8,-118.73 170.39,-108.25 162.61,-115.45 168.8,-118.73"/>
<text text-anchor="middle" x="164.67" y="-131.2" font-family="Times,serif" font-size="14.00">R</text>
</g>
<!-- 7 -->
<g id="node8" class="node">
<title>7</title>
<text text-anchor="middle" x="179" y="-13.8" font-family="Times,serif" font-size="14.00" fill="#00cc00">✓</text>
</g>
<!-- 6&#45;&gt;7 -->
<g id="edge7" class="edge">
<title>6&#45;&gt;7</title>
<path fill="none" stroke="black" d="M179,-72.81C179,-64.79 179,-55.05 179,-46.07"/>
<polygon fill="black" stroke="black" points="182.5,-46.03 179,-36.03 175.5,-46.03 182.5,-46.03"/>
</g>
</g>
</svg>
