<svg width="500px" height="896px"
 viewBox="0.00 0.00 178.00 318.60" xmlns="http://www.w3.org/2000/svg" xmlns:xlink="http://www.w3.org/1999/xlink">
<g id="graph0" class="graph" transform="scale(1.0 1.0) rotate(0.0) translate(4.0 314.6)">
<title>Tableaux</title>
<polygon fill="white" stroke="transparent" points="-4,4 -4,-314.6 174,-314.6 174,4 -4,4"/>
<!-- 0 -->
<g id="node1" class="node">
<title>0</title>
<ellipse fill="none" stroke="black" cx="107" cy="-268.6" rx="27" ry="18"/>
<text text-anchor="middle" x="107" y="-264.4" font-family="Times,serif" font-size="14.00">x_0</text>
<g id="a_node1_0"><a xlink:href="file:///H:\Universita\Progetto IW\labels\1_25" xlink:title="x_0">
<polygon fill="none" stroke="black" points="37,-287.6 37,-309.6 79,-309.6 79,-287.6 37,-287.6"/>
<text text-anchor="start" x="39.72" y="-294" font-family="Times,serif" font-size="14.00">L_x_0</text>
</a>
</g>
<polygon fill="none" stroke="black" points="36,-286.6 36,-310.6 80,-310.6 80,-286.6 36,-286.6"/>
</g>
<!-- 1 -->
<g id="node2" class="node">
<title>1</title>
<ellipse fill="none" stroke="black" cx="107" cy="-179.8" rx="27" ry="18"/>
<text text-anchor="middle" x="107" y="-175.6" font-family="Times,serif" font-size="14.00">x_0</text>
<g id="a_node2_1"><a xlink:href="file:///H:\Universita\Progetto IW\labels\2_25" xlink:title="x_0">
<polygon fill="none" stroke="black" points="37,-198.8 37,-220.8 79,-220.8 79,-198.8 37,-198.8"/>
<text text-anchor="start" x="39.72" y="-205.2" font-family="Times,serif" font-size="14.00">L_x_0</text>
</a>
</g>
<polygon fill="none" stroke="black" points="36,-197.8 36,-221.8 80,-221.8 80,-197.8 36,-197.8"/>
</g>
<!-- 0&#45;&gt;1 -->
<g id="edge1" class="edge">
<title>0&#45;&gt;1</title>
<path fill="none" stroke="black" d="M107,-250.45C107,-238.32 107,-221.82 107,-207.92"/>
<polygon fill="black" stroke="black" points="110.5,-207.91 107,-197.91 103.5,-207.91 110.5,-207.91"/>
<text text-anchor="middle" x="112.25" y="-220" font-family="Times,serif" font-size="14.00">⊔</text>
</g>
<!-- 2 -->
<g id="node3" class="node">
<title>2</title>
<ellipse fill="none" stroke="black" cx="71" cy="-91" rx="27" ry="18"/>
<text text-anchor="middle" x="71" y="-86.8" font-family="Times,serif" font-size="14.00">x_0</text>
<g id="a_node3_2"><a xlink:href="file:///H:\Universita\Progetto IW\labels\3_25" xlink:title="x_0">
<polygon fill="none" stroke="black" points="1,-110 1,-132 43,-132 43,-110 1,-110"/>
<text text-anchor="start" x="3.72" y="-116.4" font-family="Times,serif" font-size="14.00">L_x_0</text>
</a>
</g>
<polygon fill="none" stroke="black" points="0,-109 0,-133 44,-133 44,-109 0,-109"/>
</g>
<!-- 1&#45;&gt;2 -->
<g id="edge3" class="edge">
<title>1&#45;&gt;2</title>
<path fill="none" stroke="black" d="M100.06,-162.06C94.88,-149.58 87.71,-132.28 81.78,-118"/>
<polygon fill="black" stroke="black" points="84.98,-116.58 77.92,-108.68 78.52,-119.26 84.98,-116.58"/>
<text text-anchor="middle" x="98.25" y="-131.2" font-family="Times,serif" font-size="14.00">⊔</text>
</g>
<!-- 4 -->
<g id="node5" class="node">
<title>4</title>
<ellipse fill="none" stroke="black" cx="143" cy="-91" rx="27" ry="18"/>
<text text-anchor="middle" x="143" y="-86.8" font-family="Times,serif" font-size="14.00">x_0</text>
<g id="a_node5_3"><a xlink:href="file:///H:\Universita\Progetto IW\labels\5_20" xlink:title="x_0">
<polygon fill="none" stroke="black" points="73,-50 73,-72 115,-72 115,-50 73,-50"/>
<text text-anchor="start" x="75.72" y="-56.4" font-family="Times,serif" font-size="14.00">L_x_0</text>
</a>
</g>
<polygon fill="none" stroke="black" points="72,-49 72,-73 116,-73 116,-49 72,-49"/>
</g>
<!-- 1&#45;&gt;4 -->
<g id="edge2" class="edge">
<title>1&#45;&gt;4</title>
<path fill="none" stroke="black" d="M113.94,-162.06C119.12,-149.58 126.29,-132.28 132.22,-118"/>
<polygon fill="black" stroke="black" points="135.48,-119.26 136.08,-108.68 129.02,-116.58 135.48,-119.26"/>
<text text-anchor="middle" x="134.25" y="-131.2" font-family="Times,serif" font-size="14.00">⊔</text>
</g>
<!-- 3 -->
<g id="node4" class="node">
<title>3</title>
<text text-anchor="middle" x="71" y="-13.8" font-family="Times,serif" font-size="14.00" fill="#cc3300">✖</text>
</g>
<!-- 2&#45;&gt;3 -->
<g id="edge4" class="edge">
<title>2&#45;&gt;3</title>
<path fill="none" stroke="black" d="M71,-72.81C71,-64.79 71,-55.05 71,-46.07"/>
<polygon fill="black" stroke="black" points="74.5,-46.03 71,-36.03 67.5,-46.03 74.5,-46.03"/>
</g>
<!-- 5 -->
<g id="node6" class="node">
<title>5</title>
<text text-anchor="middle" x="143" y="-13.8" font-family="Times,serif" font-size="14.00" fill="#00cc00">✓</text>
</g>
<!-- 4&#45;&gt;5 -->
<g id="edge5" class="edge">
<title>4&#45;&gt;5</title>
<path fill="none" stroke="black" d="M143,-72.81C143,-64.79 143,-55.05 143,-46.07"/>
<polygon fill="black" stroke="black" points="146.5,-46.03 143,-36.03 139.5,-46.03 146.5,-46.03"/>
</g>
</g>
</svg>
