<svg width="1177px" height="233px"
 viewBox="0.00 0.00 1177.00 233.00" xmlns="http://www.w3.org/2000/svg" xmlns:xlink="http://www.w3.org/1999/xlink">
<g id="graph0" class="graph" transform="scale(1.0 1.0) rotate(0.0) translate(4.0 229.0)">
<title>ALC Tableaux</title>
<polygon fill="white" stroke="transparent" points="-4,4 -4,-229 1173,-229 1173,4 -4,4"/>
<!-- 0 -->
<g id="node1" class="node">
<title>0</title>
<ellipse fill="none" stroke="black" cx="1106" cy="-120" rx="27" ry="18"/>
<text text-anchor="middle" x="1106" y="-116.3" font-family="Times New Roman,serif" font-size="14.00">x_0</text>
<text text-anchor="middle" x="597" y="-141.8" font-family="Times New Roman,serif" font-size="14.00">L_x_0 = {(¬A ⊔ ¬B), (A ⊔ ∀R.((A ⊓ ¬A) ⊔ ¬B)), (¬A ⊔ ∃R.(B ⊓ (A ⊔ ¬A))), ¬A, ((A ⊔ ∀R.((A ⊓ ¬A) ⊔ ¬B)) ⊓ (¬A ⊔ ∃R.(B ⊓ (A ⊔ ¬A))))}</text>
</g>
<!-- 1 -->
<g id="node2" class="node">
<title>1</title>
<ellipse fill="none" stroke="black" cx="1070" cy="-33" rx="27" ry="18"/>
<text text-anchor="middle" x="1070" y="-29.3" font-family="Times New Roman,serif" font-size="14.00">x_0</text>
<text text-anchor="middle" x="552" y="-54.8" font-family="Times New Roman,serif" font-size="14.00">L_x_0 = {A, (¬A ⊔ ¬B), (A ⊔ ∀R.((A ⊓ ¬A) ⊔ ¬B)), (¬A ⊔ ∃R.(B ⊓ (A ⊔ ¬A))), ¬A, ((A ⊔ ∀R.((A ⊓ ¬A) ⊔ ¬B)) ⊓ (¬A ⊔ ∃R.(B ⊓ (A ⊔ ¬A))))}</text>
</g>
<!-- 0&#45;&gt;1 -->
<g id="edge2" class="edge">
<title>0&#45;&gt;1</title>
<path fill="none" stroke="black" d="M1098.89,-102.21C1093.78,-90.14 1086.79,-73.64 1080.97,-59.89"/>
<polygon fill="black" stroke="black" points="1084.1,-58.31 1076.98,-50.47 1077.65,-61.04 1084.1,-58.31"/>
<text text-anchor="middle" x="1100" y="-72.8" font-family="Times New Roman,serif" font-size="14.00">⊔</text>
</g>
<!-- 2 -->
<g id="node3" class="node">
<title>2</title>
<ellipse fill="none" stroke="black" cx="1142" cy="-33" rx="27" ry="18"/>
<text text-anchor="middle" x="1142" y="-29.3" font-family="Times New Roman,serif" font-size="14.00">x_0</text>
<text text-anchor="middle" x="557.5" y="-3.8" font-family="Times New Roman,serif" font-size="14.00">L_x_0 = {(¬A ⊔ ¬B), ∀R.((A ⊓ ¬A) ⊔ ¬B), (A ⊔ ∀R.((A ⊓ ¬A) ⊔ ¬B)), (¬A ⊔ ∃R.(B ⊓ (A ⊔ ¬A))), ¬A, ((A ⊔ ∀R.((A ⊓ ¬A) ⊔ ¬B)) ⊓ (¬A ⊔ ∃R.(B ⊓ (A ⊔ ¬A))))}</text>
</g>
<!-- 0&#45;&gt;2 -->
<g id="edge3" class="edge">
<title>0&#45;&gt;2</title>
<path fill="none" stroke="black" d="M1113.11,-102.21C1118.22,-90.14 1125.21,-73.64 1131.03,-59.89"/>
<polygon fill="black" stroke="black" points="1134.35,-61.04 1135.02,-50.47 1127.9,-58.31 1134.35,-61.04"/>
<text text-anchor="middle" x="1135" y="-72.8" font-family="Times New Roman,serif" font-size="14.00">⊔</text>
</g>
<!-- x_0 -->
<g id="node4" class="node">
<title>x_0</title>
<ellipse fill="none" stroke="black" cx="1106" cy="-207" rx="27" ry="18"/>
<text text-anchor="middle" x="1106" y="-203.3" font-family="Times New Roman,serif" font-size="14.00">x_0</text>
</g>
<!-- x_0&#45;&gt;0 -->
<g id="edge1" class="edge">
<title>x_0&#45;&gt;0</title>
<path fill="none" stroke="black" d="M1106,-188.8C1106,-177.16 1106,-161.55 1106,-148.24"/>
<polygon fill="black" stroke="black" points="1109.5,-148.18 1106,-138.18 1102.5,-148.18 1109.5,-148.18"/>
<text text-anchor="middle" x="1115" y="-159.8" font-family="Times New Roman,serif" font-size="14.00">⊔</text>
</g>
</g>
</svg>
